<?xml version="1.0" encoding="utf-8"?>
<!-- Generator: Adobe Illustrator 16.0.0, SVG Export Plug-In . SVG Version: 6.00 Build 0)  -->
<!DOCTYPE svg PUBLIC "-//W3C//DTD SVG 1.1//EN" "http://www.w3.org/Graphics/SVG/1.1/DTD/svg11.dtd">
<svg version="1.1" id="Layer_1" xmlns="http://www.w3.org/2000/svg" xmlns:xlink="http://www.w3.org/1999/xlink" x="0px" y="0px"
	 width="447px" height="446px" viewBox="0 0 447 446" enable-background="new 0 0 447 446" xml:space="preserve">
<g>
	<defs>
		<rect id="SVGID_1_" x="-27" y="-26" width="500" height="500"/>
	</defs>
	<clipPath id="SVGID_2_">
		<use xlink:href="#SVGID_1_"  overflow="visible"/>
	</clipPath>
	<g clip-path="url(#SVGID_2_)">
		<defs>
			<rect id="SVGID_3_" x="-27" y="-26" width="500" height="500"/>
		</defs>
		<clipPath id="SVGID_4_">
			<use xlink:href="#SVGID_3_"  overflow="visible"/>
		</clipPath>
		<path clip-path="url(#SVGID_4_)" fill="#F5F5F5" d="M350.71,280.17c-15.79-13.77-17.28-36.33-14.46-56.15
			c0.47-3.31,0.49-6.859,2.38-9.6s5.8-4.34,8.62-2.62c2.34,1.43,3.11,4.41,4.231,6.94c1.508,3.363,3.934,6.233,7,8.28
			c2,1.32,4.538,2.28,6.75,1.351c3-1.271,3.809-5.2,4.139-8.5c0.627-6.16,1.253-12.323,1.88-18.49c0.33-3.3,0.69-6.68,2.05-9.7
			c1.36-3.02,3.95-5.69,7.19-6.24c3.241-0.55,6.93,1.69,7.241,5c-0.024,1.38-0.141,2.756-0.352,4.12c-0.05,1.38,0.42,3,1.68,3.49
			c1.261,0.49,2.7-0.26,3.801-1.12c3.77-3,6.54-7,9.17-11.06c2.63-4.06,5.189-8.19,8.68-11.49s8.07-5.73,12.83-5.49
			c4.76,0.24,9.49,3.71,10.18,8.48c0.69,4.77-2.52,9.22-5.89,12.67c-4.986,5.128-10.689,9.506-16.93,13
			c-1.196,0.506-2.2,1.378-2.87,2.49c-0.95,2.12,0.899,4.54,3,5.49c2.37,1.09,5.069,1.12,7.609,1.7c2.54,0.58,5.221,2,5.931,4.56
			c1,3.52-2.221,6.76-5.25,8.78c-6.069,4.042-12.787,7.012-19.86,8.78c-2.52,0.62-5.17,1.13-7.31,2.62
			c-2.141,1.49-3.65,4.34-2.71,6.8c0.939,2.46,3.89,3.53,6.489,3.33c2.601-0.2,5-1.34,7.54-2c4.73-1.22,10.561-0.28,13,4
			c1.641,2.78,1.42,6.391,0.12,9.36c-1.434,2.911-3.436,5.506-5.89,7.63c-8.127,7.868-18.196,13.438-29.181,16.14
			c-10.92,2.511-20.789,2.45-30.84-2.5"/>
		<path clip-path="url(#SVGID_4_)" fill="#E0E0E0" d="M357.19,268.24c4.472-10.481,9.54-20.698,15.18-30.601l4.399-7.819
			c1.45-2.561,2.881-5.102,4.44-7.5c3.012-4.62,6.28-9.067,9.79-13.32c3.3-4.07,6.58-7.81,9.68-11.29
			c3.101-3.479,6.051-6.65,8.87-9.44c4.423-4.417,9.188-8.476,14.25-12.14c1.79-1.3,3.21-2.26,4.181-2.9l1.109-0.72
			c0.125-0.085,0.255-0.163,0.391-0.23c-0.104,0.109-0.222,0.203-0.352,0.28l-1.079,0.77c-0.95,0.67-2.34,1.67-4.109,3
			c-4.997,3.728-9.707,7.827-14.091,12.26c-2.79,2.8-5.71,6-8.8,9.47c-3.09,3.47-6.33,7.24-9.62,11.31
			c-3.461,4.238-6.688,8.661-9.67,13.25c-1.55,2.38-3,4.899-4.42,7.47l-4.38,7.82c-5.635,9.88-10.71,20.069-15.2,30.52"/>
		<path clip-path="url(#SVGID_4_)" fill="#E0E0E0" d="M381.38,222.31c-0.107-0.473-0.164-0.956-0.17-1.44
			c-0.07-0.93-0.14-2.29-0.19-4c-0.109-3.34-0.109-7.95-0.09-13c0.021-5.05,0-9.7-0.199-13c-0.079-1.67-0.16-3-0.221-3.94
			c-0.052-0.485-0.052-0.975,0-1.46c0.135,0.466,0.222,0.945,0.26,1.43c0.141,0.93,0.28,2.27,0.421,3.94
			c0.27,3.33,0.399,8,0.38,13.06c-0.021,5.06-0.061,9.56-0.09,13v4C381.505,221.372,381.472,221.846,381.38,222.31"/>
		<path clip-path="url(#SVGID_4_)" fill="#E0E0E0" d="M424.72,219c-0.572,0.053-1.147,0.053-1.72,0c-1.1,0-2.69-0.06-4.66,0
			c-3.939,0-9.37,0.19-15.359,0.66c-5.99,0.47-11.391,1.16-15.29,1.75c-1.95,0.29-3.521,0.56-4.601,0.74
			c-0.562,0.13-1.134,0.207-1.71,0.23c0.54-0.199,1.095-0.353,1.66-0.46c1.08-0.26,2.64-0.6,4.59-0.94c3.88-0.71,9.3-1.45,15.3-1.93
			c5.129-0.428,10.275-0.592,15.42-0.49c2,0,3.561,0.15,4.66,0.24C423.585,218.814,424.157,218.882,424.72,219"/>
		<path clip-path="url(#SVGID_4_)" fill="#E0E0E0" d="M357.79,267.52c-0.104-0.17-0.182-0.355-0.23-0.55
			c-0.149-0.439-0.34-1-0.56-1.62c-0.481-1.399-1.12-3.449-1.89-6c-1.521-5.09-3.41-12.18-5.38-20c-1.971-7.819-3.79-15-5.212-20.07
			c-0.698-2.489-1.269-4.53-1.688-6.05c-0.19-0.66-0.33-1.2-0.46-1.649c-0.13-0.451-0.14-0.581-0.11-0.59
			c0.099,0.173,0.176,0.358,0.23,0.55c0.149,0.439,0.34,1,0.56,1.62c0.48,1.4,1.13,3.449,1.891,6c1.52,5.08,3.409,12.179,5.38,20
			c1.97,7.82,3.79,15,5.21,20.07c0.7,2.489,1.27,4.529,1.689,6c0.19,0.659,0.33,1.21,0.46,1.649
			C357.81,267.32,357.82,267.51,357.79,267.52"/>
		<path clip-path="url(#SVGID_4_)" fill="#E0E0E0" d="M416.2,255.41c-0.186,0.081-0.381,0.138-0.58,0.17l-1.7,0.37l-6.26,1.31
			c-5.28,1.11-12.561,2.721-20.601,4.51c-8.04,1.79-15.34,3.33-20.64,4.33c-2.66,0.5-4.81,0.881-6.3,1.11l-1.72,0.261
			c-0.203,0.024-0.408,0.024-0.61,0c0.188-0.082,0.387-0.14,0.59-0.171l1.7-0.369l6.25-1.311c5.28-1.11,12.56-2.72,20.599-4.51
			c8.041-1.79,15.341-3.33,20.651-4.33c2.65-0.5,4.8-0.88,6.29-1.11l1.72-0.26C415.793,255.386,415.997,255.386,416.2,255.41"/>
		<path clip-path="url(#SVGID_4_)" fill="#EBEBEB" d="M21.56,109.19c0,0-6.23,2.52,0.95,15.75c7.18,13.23,12.11,19.75,12.11,19.75
			s1.29,3.09-1.32,3.64c-2.61,0.55-8.4-0.22-9.48,3c-1.08,3.22,1.37,6.43,6.34,9.05c4.97,2.62,15.64,8.78,16.61,9.34
			c0.97,0.56,1.91,2,0.2,2.64s-14.66,2.35-13.49,8.44c1.17,6.09,16.21,11.2,17.85,11.74s2,1.26,1.93,2.15
			c-0.07,0.89-4.52,1.05-8.18,1.68c-3.66,0.63-7.8,2-6.83,5.46c0.97,3.46,10,10.55,31.49,12.1l10,0.06L85,205.4
			c10-19.06,8.81-30.46,6.38-33.11c-2.43-2.65-5.77,0.13-8.25,2.9s-4.93,6.43-5.75,6.05c-0.82-0.38-1.17-1.08-0.8-2.77
			c0.37-1.69,4-17.13-0.5-21.35c-4.5-4.22-12.84,5.88-14.31,7c-1.47,1.12-2.16-0.47-2.13-1.56c0.03-1.09,0.46-13.43,0.86-19
			c0.4-5.57-0.89-9.35-4.33-10.17c-3.44-0.82-5.73,4.54-7.58,6.46c-1.85,1.92-3.78-0.81-3.78-0.81s-2.93-7.61-10.36-20.71
			c-7.43-13.1-13-9-13-9"/>
		<path clip-path="url(#SVGID_4_)" fill="#E0E0E0" d="M80.32,216.33c-5.42-9.64-14.76-26.94-22.85-41.75S42,146.37,36.66,136.7
			l-6.37-11.44c-0.74-1.35-1.33-2.39-1.73-3.12c-0.19-0.34-0.34-0.61-0.44-0.81c-0.052-0.091-0.098-0.184-0.14-0.28l0.17,0.27
			l0.47,0.79l1.78,3.09c1.54,2.68,3.75,6.57,6.45,11.4c5.42,9.64,12.79,23,20.89,37.83s17.41,32.12,22.77,41.79"/>
		<path clip-path="url(#SVGID_4_)" fill="#E0E0E0" d="M31.88,152.75c0.24,0.032,0.475,0.092,0.7,0.18c0.45,0.13,1.09,0.34,1.88,0.6
			c1.57,0.53,3.73,1.32,6.09,2.24l6,2.36l1.83,0.71c0.233,0.069,0.458,0.163,0.67,0.28c-0.242-0.029-0.481-0.086-0.71-0.17
			c-0.44-0.13-1.08-0.34-1.87-0.61c-1.57-0.55-3.72-1.37-6.08-2.28l-6.06-2.32l-1.84-0.7
			C32.277,152.964,32.073,152.867,31.88,152.75"/>
		<path clip-path="url(#SVGID_4_)" fill="#E0E0E0" d="M49.76,158.47c-0.08,0,1.36-4.55,3.21-10.1c1.85-5.55,3.41-10,3.49-10
			s-1.35,4.54-3.2,10.09C51.41,154.01,49.85,158.49,49.76,158.47"/>
		<path clip-path="url(#SVGID_4_)" fill="#E0E0E0" d="M61.17,181.77c0.101-0.227,0.232-0.438,0.39-0.63l1.14-1.65
			c1-1.4,2.29-3.33,3.67-5.52c1.38-2.19,2.57-4.2,3.41-5.67l1-1.74c0.105-0.224,0.24-0.432,0.4-0.62
			c-0.081,0.235-0.181,0.462-0.3,0.68c-0.2,0.43-0.52,1-0.92,1.79c-0.79,1.5-2,3.54-3.34,5.73c-1.34,2.19-2.74,4.11-3.75,5.48
			c-0.5,0.68-0.92,1.22-1.22,1.59C61.509,181.413,61.349,181.6,61.17,181.77"/>
		<path clip-path="url(#SVGID_4_)" fill="#E0E0E0" d="M43.86,180.16c0.226-0.024,0.454-0.024,0.68,0l1.85,0.1
			c1.57,0.1,3.73,0.25,6.11,0.44s4.54,0.39,6.1,0.54l1.85,0.2c0.227,0.011,0.452,0.048,0.67,0.11c-0.226,0.024-0.454,0.024-0.68,0
			l-1.85-0.1c-1.57-0.1-3.73-0.25-6.11-0.45c-2.38-0.2-4.54-0.38-6.1-0.53l-1.85-0.2C44.303,180.262,44.078,180.224,43.86,180.16"/>
		<path clip-path="url(#SVGID_4_)" fill="#E0E0E0" d="M51.31,202c0.292-0.026,0.587-0.026,0.88,0l2.37,0.12
			c2,0.11,4.78,0.29,7.84,0.5c3.06,0.21,5.82,0.43,7.82,0.6l2.37,0.22c0.293,0.016,0.584,0.057,0.87,0.12
			c-0.29,0.026-0.581,0.026-0.87,0l-2.38-0.12c-2-0.11-4.78-0.29-7.84-0.51c-3.06-0.22-5.82-0.42-7.82-0.59l-2.37-0.22
			C51.887,202.104,51.596,202.063,51.31,202"/>
		<path clip-path="url(#SVGID_4_)" fill="#E0E0E0" d="M72.94,203.38c0.132-0.283,0.29-0.555,0.47-0.81l1.38-2.14
			c1.16-1.81,2.74-4.32,4.42-7.15s3.13-5.41,4.17-7.29c0.5-0.9,0.92-1.65,1.23-2.23c0.143-0.279,0.306-0.547,0.49-0.8
			c-0.104,0.296-0.231,0.584-0.38,0.86c-0.26,0.54-0.65,1.32-1.14,2.28c-1,1.91-2.42,4.52-4.1,7.34c-1.68,2.82-3.3,5.33-4.51,7.11
			c-0.6,0.89-1.1,1.61-1.46,2.09C73.343,202.903,73.152,203.151,72.94,203.38"/>
		
			<rect x="367.377" y="313.336" transform="matrix(-0.1906 0.9817 -0.9817 -0.1906 821.161 35.0125)" clip-path="url(#SVGID_4_)" fill="#EBEBEB" width="57.541" height="85.37"/>
		<path clip-path="url(#SVGID_4_)" fill="#E0E0E0" d="M443.68,336.66c-0.292,0.226-0.604,0.427-0.93,0.6l-2.75,1.59l-10.12,5.73
			l-33.61,18.71l-0.279,0.15l-0.2-0.24l-0.5-0.58l-25.18-29.76l-7.561-9.08l-2-2.49c-0.251-0.281-0.476-0.586-0.67-0.91
			c0.285,0.248,0.55,0.519,0.79,0.811l2.13,2.39l7.76,8.92c6.53,7.63,15.471,18.08,25.351,29.61l0.5,0.59l-0.48-0.09l33.721-18.5
			l10.239-5.521c1.16-0.609,2.091-1.1,2.801-1.46C443.006,336.945,443.337,336.788,443.68,336.66"/>
		<path clip-path="url(#SVGID_4_)" fill="#E0E0E0" d="M348.9,376.87c-0.131-0.16,7.67-6.68,17.43-14.561
			c9.76-7.88,17.79-14.119,17.93-13.949c0.141,0.17-7.67,6.68-17.439,14.56C357.05,370.8,349,377,348.9,376.87"/>
		<path clip-path="url(#SVGID_4_)" fill="#E0E0E0" d="M412.25,353.06c0.19-0.1,4.93,8.801,10.57,19.87
			c5.64,11.07,10.08,20.12,9.89,20.221c-0.188,0.1-4.93-8.801-10.58-19.87C416.48,362.21,412.06,353.16,412.25,353.06"/>
		<path clip-path="url(#SVGID_4_)" fill="#E0E0E0" d="M407.08,73.64c-0.473,0.076-0.951,0.109-1.43,0.1l-4.101,0.08l-15.1,0.15
			l-49.79,0.14h-4v-0.47c0.05-18.6,0.1-35.28,0.14-47.43c0.061-6,0.11-10.79,0.15-14.25c0-1.6,0.06-2.89,0.08-3.86
			c-0.017-0.449,0.017-0.898,0.1-1.34c0.068,0.443,0.099,0.891,0.09,1.34l0.08,3.86c0,3.46,0.09,8.3,0.15,14.25
			c0,12.15,0.09,28.83,0.14,47.43l-0.46-0.47h3.55l49.79,0.14l15.101,0.15l4.1,0.09C406.143,73.542,406.613,73.572,407.08,73.64"/>
		<path clip-path="url(#SVGID_4_)" fill="#E0E0E0" d="M398.86,23c-0.677,0.757-1.412,1.459-2.2,2.1l-6.25,5.49
			c-5.3,4.6-12.66,10.9-20.83,17.81l-1.24,1l-0.32,0.27l-0.3-0.28l-9.27-8.61H359l-13.58,11.28l-3.95,3.15
			c-0.447,0.409-0.94,0.764-1.47,1.06c0.391-0.465,0.826-0.891,1.3-1.27c0.987-0.88,2.25-1.997,3.79-3.35l13.391-11.49l0.289-0.25
			l0.28,0.27l9.311,8.56h-0.62l1.24-1c8.17-6.92,15.6-13.14,21-17.61l6.439-5.26C397.181,24.181,397.997,23.555,398.86,23"/>
		<path clip-path="url(#SVGID_4_)" fill="#E0E0E0" d="M398.86,38.48c-0.258-1.522-0.365-3.066-0.32-4.61
			c-0.09-2.86-0.14-6.83-0.15-11.25l0.471,0.47h-0.801c-4.6,0-8.76-0.05-11.779-0.14c-1.634,0.05-3.269-0.06-4.88-0.33
			c1.612-0.264,3.246-0.374,4.88-0.33c3-0.08,7.18-0.14,11.779-0.14h1.271v0.47c0,4.42-0.061,8.39-0.14,11.25
			C399.235,35.414,399.124,36.959,398.86,38.48"/>
		<path clip-path="url(#SVGID_4_)" fill="#E0E0E0" d="M18.48,320.18c1.41-0.866,2.93-1.539,4.52-2l0.93-4.47l7.55-0.14l1.09,4.439
			c1.599,0.396,3.139,1.001,4.58,1.8l3.82-2.5l5.43,5.25L44,326.5c0.865,1.403,1.538,2.917,2,4.5l4.47,0.93l0.13,7.551l-4.43,1.09
			c-0.393,1.6-0.999,3.14-1.8,4.58l2.5,3.818l-5.25,5.441l-3.9-2.37c-1.41,0.866-2.93,1.539-4.52,2l-0.93,4.47l-7.55,0.141
			l-1.09-4.44c-1.6-0.394-3.14-0.999-4.58-1.8l-3.82,2.5l-5.44-5.25l2.37-3.9c-0.867-1.41-1.539-2.93-2-4.52l-4.47-0.931l-0.14-7.55
			L10,331.65c0.395-1.6,1.001-3.14,1.8-4.58l-2.5-3.82l5.25-5.44l3.9,2.37H18.48z M22.48,330.24
			c-3.078,3.246-2.94,8.373,0.306,11.451c3.247,3.077,8.374,2.94,11.451-0.307c3.052-3.22,2.947-8.295-0.237-11.385
			c-3.218-3.107-8.346-3.017-11.453,0.202c-0.013,0.013-0.025,0.025-0.037,0.038H22.48z"/>
		<path clip-path="url(#SVGID_4_)" fill="#E0E0E0" d="M22.51,330.24c0.422-0.519,0.925-0.964,1.49-1.32
			c1.561-1.019,3.428-1.461,5.28-1.25c2.804,0.302,5.257,2.019,6.5,4.549c0.728,1.479,1.003,3.138,0.79,4.771
			c-0.474,3.613-3.255,6.491-6.85,7.09c-0.824,0.135-1.665,0.135-2.49,0c-0.795-0.104-1.571-0.326-2.3-0.66
			c-2.574-1.149-4.379-3.539-4.78-6.33c-0.276-1.847,0.102-3.732,1.07-5.33c0.333-0.588,0.762-1.115,1.27-1.56
			c0,0-0.49,0.54-1.12,1.649c-0.867,1.583-1.18,3.409-0.89,5.19c0.191,1.218,0.667,2.372,1.39,3.37
			c0.823,1.146,1.938,2.052,3.23,2.62c0.696,0.311,1.434,0.517,2.19,0.609c0.784,0.108,1.581,0.092,2.36-0.05
			c3.388-0.579,6.006-3.293,6.46-6.7c0.13-0.781,0.13-1.578,0-2.359c-0.114-0.751-0.343-1.479-0.68-2.16
			c-0.615-1.273-1.561-2.359-2.74-3.14c-1.029-0.679-2.205-1.1-3.43-1.23c-1.788-0.234-3.603,0.143-5.15,1.07
			C23,329.74,22.55,330.29,22.51,330.24"/>
		<path clip-path="url(#SVGID_4_)" fill="#E0E0E0" d="M18.48,320.18l-0.25-0.13l-0.75-0.43l-2.94-1.74h0.09l-5.22,5.46v-0.139
			L12,327v0.07v0.069c-0.787,1.437-1.382,2.97-1.77,4.562v0.089h-0.09l-4.43,1.1l0.13-0.159c0.05,2.369,0.1,4.899,0.15,7.55
			L5.84,340.1l4.48,0.92h0.11v0.11c0.449,1.569,1.105,3.073,1.95,4.47l0.06,0.102l-0.06,0.099L10,349.75v-0.26
			c1.71,1.649,3.55,3.43,5.44,5.24h-0.27l3.81-2.511l0.12-0.069l0.11,0.06c1.404,0.792,2.907,1.394,4.47,1.79h0.13v0.13
			c0.34,1.39,0.71,2.9,1.09,4.43l-0.23-0.17l7.56-0.14L32,358.44c0.3-1.421,0.61-2.94,0.93-4.471v-0.14h0.14
			c1.564-0.443,3.061-1.097,4.45-1.94l0.12-0.069l0.12,0.069l3.9,2.37h-0.29l5.25-5.439v0.29l-2.5-3.82l-0.08-0.12l0.07-0.12
			c0.832-1.41,1.468-2.928,1.89-4.51v-0.14h0.14l4.43-1.08l-0.17,0.22c-0.04-2.58-0.08-5.1-0.12-7.56l0.17,0.21L46,331.22h-0.12
			v-0.12c-0.439-1.569-1.088-3.073-1.93-4.47l-0.07-0.11l0.07-0.1l2.37-3.9v0.24l-5.42-5.26h0.22l-3.88,2.5l-0.08,0.06l-0.09-0.05
			c-1.426-0.8-2.953-1.405-4.54-1.8h-0.09v-0.09l-1.07-4.44l0.13,0.101l-7.55,0.1l0.1-0.08c-0.38,1.78-0.7,3.24-1,4.46
			c-1.193,0.333-2.351,0.778-3.46,1.33l-0.81,0.42l-0.27,0.141l0.25-0.17c0.17-0.11,0.44-0.271,0.8-0.46
			c1.098-0.586,2.254-1.055,3.45-1.4l-0.06,0.05c0.25-1.219,0.55-2.689,0.91-4.469v-0.081h0.09l7.55-0.16h0.11v0.101
			c0.35,1.369,0.71,2.819,1.11,4.43l-0.12-0.11c1.617,0.394,3.175,1.002,4.63,1.811h-0.17l3.81-2.511l0.12-0.08l0.1,0.102
			l5.45,5.239l0.11,0.109l-0.08,0.13l-2.36,3.91v-0.21c0.864,1.426,1.536,2.959,2,4.561l-0.16-0.141l4.48,0.92h0.16V332
			c0.04,2.453,0.087,4.97,0.14,7.55v0.181h-0.17l-4.44,1.09l0.17-0.17c-0.4,1.619-1.012,3.18-1.82,4.64v-0.23
			c0.82,1.261,1.66,2.53,2.5,3.811l0.1,0.16l-0.13,0.13L41.8,354.6l-0.13,0.131l-0.16-0.101l-3.9-2.36h0.23
			c-1.426,0.87-2.964,1.543-4.57,2l0.17-0.18c-0.32,1.53-0.64,3.061-0.93,4.47v0.181h-0.19l-7.55,0.13h-0.18v-0.18l-1.08-4.44
			l0.17,0.17c-1.621-0.401-3.181-1.017-4.64-1.83h0.23l-3.82,2.5l-0.15,0.101l-0.12-0.12l-5.43-5.261l-0.12-0.108l0.09-0.142
			c0.82-1.358,1.63-2.699,2.37-3.899v0.2c-0.866-1.429-1.539-2.965-2-4.57l0.15,0.14l-4.47-0.939H5.63v-0.15
			c-0.04-2.666-0.077-5.184-0.11-7.55v-0.13h0.12L10,331.5l-0.11,0.11c0.403-1.61,1.015-3.159,1.82-4.61v0.14l-2.49-3.83v-0.069
			l0.06-0.07l5.28-5.41l2.88,1.79l0.74,0.47L18.48,320.18z"/>
		<path clip-path="url(#SVGID_4_)" fill="#F5F5F5" d="M72.87,299c0.844-0.51,1.752-0.903,2.7-1.17l0.56-2.68l4.52-0.08l0.65,2.66
			c0.961,0.233,1.887,0.597,2.75,1.079l2.28-1.5l3.25,3.141l-1.41,2.34c0.51,0.843,0.903,1.751,1.17,2.7L92,306l0.08,4.52
			l-2.66,0.65c-0.232,0.959-0.596,1.881-1.08,2.74l1.5,2.29l-3.14,3.25l-2.34-1.41c-0.845,0.506-1.753,0.899-2.7,1.17l-0.56,2.68
			l-4.52,0.08l-0.65-2.66c-0.959-0.231-1.88-0.595-2.74-1.079l-2.29,1.5l-3.25-3.141l1.41-2.34c-0.506-0.846-0.899-1.753-1.17-2.7
			L65.23,311l-0.08-4.52l2.66-0.65c0.234-0.961,0.597-1.887,1.08-2.75l-1.5-2.28l3.14-3.25L72.87,299z M75.28,305
			c-1.86,1.928-1.805,4.998,0.122,6.857c1.928,1.86,4.998,1.806,6.858-0.122c1.859-1.926,1.806-4.995-0.12-6.855
			c-1.926-1.861-4.996-1.809-6.858,0.118C75.281,304.999,75.281,304.999,75.28,305"/>
		<path clip-path="url(#SVGID_4_)" fill="#F5F5F5" d="M75.28,305c0.253-0.315,0.558-0.586,0.9-0.8c0.94-0.604,2.06-0.865,3.17-0.74
			c0.767,0.078,1.505,0.339,2.15,0.76c0.748,0.5,1.349,1.19,1.74,2c0.214,0.43,0.362,0.888,0.44,1.36c0.08,0.493,0.08,0.996,0,1.49
			c-0.295,2.158-1.953,3.878-4.1,4.25c-0.493,0.08-0.996,0.08-1.49,0c-0.477-0.056-0.944-0.188-1.38-0.391
			c-0.803-0.37-1.492-0.946-2-1.67c-0.442-0.631-0.73-1.357-0.84-2.12c-0.162-1.105,0.064-2.232,0.64-3.189
			c0.198-0.352,0.455-0.667,0.76-0.931c0,0-0.29,0.311-0.67,1c-0.517,0.949-0.703,2.044-0.53,3.11c0.249,1.59,1.294,2.94,2.77,3.58
			c0.412,0.19,0.85,0.315,1.3,0.37c0.471,0.074,0.95,0.074,1.42,0c2.024-0.348,3.59-1.966,3.87-4c0.076-0.467,0.076-0.943,0-1.41
			c-0.072-0.451-0.211-0.889-0.41-1.3c-0.373-0.759-0.939-1.407-1.64-1.88c-1.546-1.022-3.541-1.064-5.13-0.11
			C75.914,304.566,75.59,304.773,75.28,305"/>
		<path clip-path="url(#SVGID_4_)" fill="#F5F5F5" d="M72.87,299l-0.15-0.08l-0.45-0.26c-0.41-0.24-1-0.58-1.76-1l-3.12,3.27v-0.09
			c0.46,0.69,1,1.46,1.51,2.28c-0.471,0.858-0.827,1.777-1.06,2.729v0.051l-2.65,0.659l0.07-0.1c0,1.42,0.06,2.93,0.09,4.521
			l-0.08-0.11l2.67,0.56H68v0.07c0.27,0.938,0.664,1.835,1.17,2.67v0.061v0.06c-0.44,0.729-0.92,1.53-1.42,2.34v-0.149
			c1,1,2.13,2,3.26,3.14h-0.16l2.28-1.5h0.07h0.07c0.853,0.469,1.765,0.825,2.71,1.06h0.08v0.08c0.21,0.83,0.43,1.74,0.65,2.65
			l-0.13-0.101l4.52-0.079l-0.13,0.109c0.17-0.85,0.36-1.76,0.55-2.68v-0.08h0.08c0.938-0.264,1.836-0.654,2.67-1.16h0.08h0.07
			l2.33,1.41h-0.17l3.14-3.26v0.17l-1.5-2.28v-0.07v-0.069c0.479-0.851,0.839-1.762,1.07-2.71v-0.08h0.08l2.66-0.65l-0.1,0.13
			c0-1.54,0-3.05-0.08-4.52l0.1,0.12l-2.67-0.561H89.2v-0.08c-0.263-0.938-0.653-1.837-1.16-2.67v-0.06v-0.07l1.43-2.33v0.141
			l-3.24-3.141h0.13l-2.29,1.49c-0.854-0.478-1.769-0.837-2.72-1.07v-0.05c-0.23-1-0.44-1.84-0.64-2.66l0.08,0.061l-4.52,0.06
			l0.06-0.05c-0.23,1.07-0.42,2-0.57,2.68c-0.711,0.198-1.402,0.466-2.06,0.8l-0.49,0.25l-0.16,0.08l0.15-0.1
			c0.1-0.061,0.26-0.16,0.48-0.271c0.656-0.352,1.346-0.637,2.06-0.85c0.15-0.729,0.32-1.61,0.54-2.68v-0.05l4.52-0.101h0.06v0.061
			c0.2,0.819,0.42,1.689,0.66,2.649l-0.07-0.06c0.967,0.235,1.899,0.599,2.77,1.08H84l2.28-1.5h0.07l0.06,0.06c1,1,2.12,2,3.26,3.14
			l0.07,0.061v0.08c-0.46,0.76-0.92,1.54-1.41,2.34v-0.13c0.517,0.855,0.917,1.777,1.19,2.74l-0.09-0.091l2.68,0.551h0.1v0.1
			c0,1.48,0,3,0.08,4.53v0.1h-0.1l-2.65,0.65l0.09-0.101c-0.236,0.973-0.602,1.907-1.09,2.78v-0.14l1.5,2.279l0.06,0.091
			l-0.08,0.078l-3.14,3.262l-0.08,0.08l-0.09-0.061l-2.34-1.42h0.14c-0.851,0.517-1.77,0.914-2.73,1.18l0.1-0.1
			c-0.2,0.92-0.39,1.83-0.56,2.67v0.11h-0.11l-4.53,0.08h-0.11v-0.101c-0.22-0.92-0.45-1.83-0.65-2.66l0.1,0.101
			c-0.97-0.243-1.904-0.609-2.78-1.09h0.14l-2.38,1.6l-0.08,0.05l-0.08-0.069l-3.25-3.141l-0.07-0.069v-0.091
			c0.5-0.81,1-1.609,1.42-2.329v0.119c-0.514-0.853-0.911-1.771-1.18-2.729l0.09,0.08l-2.68-0.561h-0.08V311c0-1.58,0-3.1-0.06-4.52
			v-0.08h0.08l2.66-0.641l-0.07,0.07c0.242-0.965,0.612-1.893,1.1-2.76v0.08l-1.49-2.29v-0.051l3.16-3.229l1.73,1.07l0.44,0.279
			L72.87,299z"/>
		<path clip-path="url(#SVGID_4_)" fill="#E0E0E0" d="M87.4,417.41L87.4,417.41l-2.06-8.4c-3.031-0.739-5.947-1.886-8.67-3.41
			l-7.25,4.75l-10.33-10l4.48-7.39c-1.613-2.668-2.86-5.54-3.71-8.54l-8.49-1.77L51.12,368.3l8.4-2.06
			c0.764-3.047,1.935-5.977,3.48-8.71l-4.75-7.25l10-10.33l7.39,4.49c2.674-1.612,5.549-2.863,8.55-3.721l1.76-8.479l14.35-0.26
			l2.05,8.399c3.032,0.748,5.951,1.895,8.68,3.41l7.24-4.75l10.32,10l-4.48,7.39c1.613,2.672,2.861,5.548,3.71,8.551l8.49,1.77
			l0.25,14.34l-8.4,2.061c-0.75,3.027-1.896,5.942-3.41,8.67l4.75,7.239l-10,10.32l-7.42-4.38c-2.671,1.613-5.547,2.86-8.55,3.71
			l-1.76,8.49L87.4,417.41z M76.66,405.52L76.66,405.52c2.728,1.522,5.647,2.673,8.68,3.421l2.06,8.39l14.29-0.25l1.76-8.47
			c3.007-0.853,5.886-2.104,8.56-3.721l7.39,4.48l9.92-10.28l-4.74-7.24c1.521-2.731,2.672-5.654,3.42-8.689l8.4-2l-0.25-14.29
			l-8.38-1.87c-0.853-3.006-2.104-5.885-3.72-8.56l4.48-7.391l-10.29-9.92l-7.24,4.74c-2.73-1.516-5.648-2.662-8.68-3.41l-2.09-8.46
			l-14.29,0.25l-1.76,8.47c-3.012,0.847-5.895,2.098-8.57,3.721L68.19,340l-9.92,10.28l4.73,7.25
			c-1.521,2.731-2.671,5.654-3.42,8.689l-8.4,2.061l0.25,14.29l8.48,1.76c0.857,3.005,2.108,5.883,3.72,8.56l-4.47,7.38l10.28,9.931
			L76.66,405.52z M94.28,389.63c-8.505-0.003-15.397-6.9-15.394-15.405c0.001-3.99,1.552-7.825,4.324-10.694
			c2.837-2.94,6.726-4.632,10.81-4.7h0.28c8.504,0.133,15.291,7.134,15.158,15.638c-0.128,8.217-6.684,14.886-14.898,15.152
			L94.28,389.63z M83.28,363.55L83.28,363.55c-5.882,6.105-5.701,15.822,0.404,21.704c2.847,2.743,6.643,4.282,10.596,4.296h0.28
			c8.473-0.275,15.118-7.368,14.843-15.841c-0.267-8.187-6.914-14.721-15.103-14.849H94c-4.072,0.055-7.951,1.741-10.77,4.68
			L83.28,363.55z"/>
		<path clip-path="url(#SVGID_4_)" fill="#E0E0E0" d="M83.23,363.55c0.809-0.988,1.775-1.837,2.86-2.51
			c2.96-1.92,6.493-2.758,10-2.37c5.319,0.569,9.974,3.827,12.33,8.63c0.681,1.362,1.152,2.818,1.4,4.32
			c0.277,1.563,0.304,3.158,0.08,4.729c-0.893,6.858-6.176,12.32-13,13.44c-3.082,0.523-6.251,0.116-9.1-1.17
			c-4.876-2.185-8.294-6.713-9.06-12c-0.519-3.5,0.187-7.071,2-10.11c0.636-1.108,1.45-2.106,2.41-2.95
			c-0.756,1.004-1.46,2.045-2.11,3.12c-1.653,2.997-2.252,6.463-1.7,9.84c0.802,5.034,4.105,9.316,8.77,11.37
			c2.704,1.201,5.705,1.57,8.62,1.061c6.432-1.094,11.403-6.244,12.27-12.71c0.401-2.929-0.072-5.91-1.36-8.57
			c-2.215-4.592-6.61-7.744-11.67-8.37c-3.392-0.445-6.835,0.259-9.78,2C85.167,362,84.179,362.751,83.23,363.55"/>
		<path clip-path="url(#SVGID_4_)" fill="#E0E0E0" d="M75.59,344.47l-0.48-0.26l-1.42-0.82l-5.58-3.29h0.18l-9.9,10.37v-0.279
			l4.78,7.229l0.08,0.13l-0.07,0.13c-1.5,2.719-2.633,5.624-3.37,8.641v0.17h-0.17l-8.41,2.09l0.24-0.311
			c0.09,4.511,0.19,9.301,0.29,14.32l-0.28-0.33L60,384h0.22l0.06,0.22c0.856,2.974,2.1,5.821,3.7,8.471l0.12,0.189l-0.12,0.2
			l-4.48,7.41L59.44,400l10.27,10H69.2l7.23-4.76l0.22-0.141l0.22,0.131c2.701,1.498,5.59,2.632,8.59,3.369l0.25,0.061l0.06,0.25
			c0.65,2.64,1.36,5.51,2.07,8.41l-0.43-0.33l14.33-0.25l-0.42,0.35c0.56-2.68,1.16-5.57,1.76-8.479l0.06-0.271l0.25-0.07
			c2.97-0.845,5.814-2.078,8.46-3.67l0.23-0.13l0.23,0.141l7.4,4.479l-0.54,0.07l10-10.3l-0.05,0.54
			c-1.59-2.44-3.18-4.851-4.74-7.24l-0.14-0.22l0.12-0.23c1.506-2.7,2.646-5.589,3.39-8.59l0.06-0.25l0.25-0.061l8.41-2.05
			l-0.32,0.41c-0.08-4.888-0.157-9.663-0.23-14.33l0.32,0.391l-8.48-1.771l-0.23-0.05l-0.07-0.23
			c-0.841-2.977-2.075-5.828-3.67-8.48l-0.12-0.199l0.12-0.2c1.55-2.529,3-5,4.5-7.39l0.06,0.45l-10.29-10h0.42l-7.25,4.729
			l-0.16,0.101l-0.17-0.091c-2.704-1.52-5.6-2.669-8.61-3.42h-0.17v-0.17l-2-8.42l0.26,0.2l-14.33,0.19l0.19-0.16
			c-0.73,3.379-1.33,6.16-1.82,8.47v0.09h-0.08c-2.262,0.618-4.457,1.463-6.55,2.521l-1.55,0.799
			c-0.161,0.106-0.332,0.197-0.51,0.271c0.148-0.127,0.309-0.237,0.48-0.33c0.33-0.199,0.82-0.5,1.51-0.87
			c2.081-1.113,4.273-2.005,6.54-2.659l-0.1,0.1c0.47-2.31,1-5.1,1.71-8.49v-0.149h0.16l14.33-0.311h0.2v0.2
			c0.65,2.601,1.33,5.351,2.09,8.4l-0.21-0.21c3.067,0.746,6.02,1.899,8.78,3.43h-0.33l7.23-4.77l0.23-0.141l0.19,0.18l10.33,9.94
			l0.21,0.2l-0.15,0.25c-1.45,2.41-2.94,4.87-4.48,7.41v-0.391c1.638,2.702,2.906,5.611,3.77,8.65l-0.3-0.28l8.48,1.76l0.32,0.06
			v0.331c0.08,4.666,0.167,9.443,0.26,14.33v0.33l-0.33,0.079l-8.41,2.07l0.31-0.31c-0.75,3.074-1.911,6.034-3.45,8.8v-0.45
			l4.75,7.24l0.19,0.29l-0.24,0.25l-9.95,10.32l-0.24,0.25l-0.3-0.181l-7.41-4.49h0.45c-2.709,1.638-5.625,2.905-8.67,3.771
			l0.31-0.34c-0.6,2.92-1.21,5.81-1.76,8.479l-0.08,0.351h-0.35l-14.32,0.25h-0.35l-0.08-0.33c-0.71-2.9-1.41-5.78-2.06-8.41
			l0.32,0.31c-3.074-0.763-6.032-1.93-8.8-3.47h0.43l-7.24,4.74l-0.28,0.18l-0.23-0.22l-10.3-10l-0.23-0.22l0.17-0.271l4.5-7.39
			v0.39c-1.632-2.709-2.893-5.625-3.75-8.67l0.27,0.26L51.33,383l-0.27-0.06v-0.271c-0.08-5-0.15-9.82-0.22-14.33V368l0.24-0.06
			l8.42-2l-0.21,0.21c0.768-3.057,1.935-5.999,3.47-8.75v0.27l-4.71-7.26l-0.1-0.15l0.12-0.13l10-10.25l0.07-0.08l0.1,0.061
			l5.45,3.39l1.41,0.89C75.275,344.232,75.439,344.343,75.59,344.47"/>
		
			<rect x="75.824" y="41.819" transform="matrix(-0.9973 0.0738 -0.0738 -0.9973 468.9186 450.0608)" clip-path="url(#SVGID_4_)" fill="#FFFFFF" width="300.65" height="383.74"/>
		<path clip-path="url(#SVGID_4_)" fill="#263238" d="M90,436.651v-0.5L61.55,53h0.5l300.33-22.31v0.5l28.37,383.19h-0.5L90,436.651
			z M62.62,53.88l28.26,381.7l298.83-22.12l-28.26-381.7L62.62,53.88z"/>
		
			<rect x="254.757" y="50.933" transform="matrix(-0.9973 0.0738 -0.0738 -0.9973 593.6582 85.1405)" clip-path="url(#SVGID_4_)" fill="#FFC100" width="81" height="5.2"/>
		<path clip-path="url(#SVGID_4_)" fill="#FFC100" d="M334.49,87.76L334,87.85L332.57,88l-5.24,0.48L310,89.92
			c-6.77,0.55-12.89,1-17.33,1.28l-5.26,0.31l-1.43,0.06c-0.167,0.018-0.334,0.018-0.5,0c0.156-0.054,0.321-0.084,0.488-0.09
			l1.432-0.16l5.239-0.47L310,89.4c6.76-0.56,12.88-1,17.32-1.29l5.26-0.31l1.43-0.06C334.17,87.721,334.332,87.727,334.49,87.76"/>
		<path clip-path="url(#SVGID_4_)" fill="#263238" d="M339.33,107.31c0,0.15-17.6,1.57-39.33,3.18
			c-21.73,1.61-39.37,2.79-39.38,2.65s17.6-1.56,39.34-3.17S339.32,107.17,339.33,107.31"/>
		<path clip-path="url(#SVGID_4_)" fill="#263238" d="M340.66,132.24c0,0.15-17.601,1.57-39.33,3.18
			c-21.73,1.61-39.33,2.8-39.33,2.65s17.6-1.56,39.34-3.17C323.08,133.29,340.65,132.1,340.66,132.24"/>
		<path clip-path="url(#SVGID_4_)" fill="#263238" d="M340.66,119.78c0,0.14-17.601,1.56-39.33,3.17
			c-21.73,1.61-39.33,2.8-39.33,2.66s17.6-1.57,39.34-3.18C323.08,120.82,340.65,119.64,340.66,119.78"/>
		<path clip-path="url(#SVGID_4_)" fill="#FFC100" d="M175.45,294.34c0,0.141-9.12,0.94-20.39,1.771s-20.42,1.399-20.43,1.25
			c-0.01-0.15,9.12-0.931,20.39-1.771S175.44,294.2,175.45,294.34"/>
		<path clip-path="url(#SVGID_4_)" fill="#FFC100" d="M158.39,318.3c0,0.15-12.22,1.17-27.32,2.29c-15.1,1.12-27.34,1.9-27.35,1.76
			c-0.01-0.14,12.21-1.159,27.32-2.278C146.15,318.95,158.38,318.16,158.39,318.3"/>
		<path clip-path="url(#SVGID_4_)" fill="#263238" d="M258,320.33c0,0.14-34.36,2.8-76.76,5.939c-42.4,3.141-76.8,5.57-76.81,5.431
			c-0.01-0.141,34.35-2.811,76.77-5.95C223.62,322.61,258,320.19,258,320.33"/>
		<path clip-path="url(#SVGID_4_)" fill="#FFC100" d="M160.11,341.55c0,0.141-12.22,1.16-27.31,2.28s-27.35,1.91-27.36,1.76
			c-0.01-0.149,12.22-1.16,27.32-2.28C147.86,342.19,160.1,341.4,160.11,341.55"/>
		<path clip-path="url(#SVGID_4_)" fill="#263238" d="M259.7,343.57c0,0.149-34.36,2.81-76.76,5.949
			c-42.4,3.141-76.8,5.561-76.81,5.421c-0.01-0.142,34.35-2.801,76.77-5.94C225.32,345.86,259.69,343.43,259.7,343.57"/>
		<path clip-path="url(#SVGID_4_)" fill="#FFC100" d="M161.83,364.79c0,0.14-12.22,1.16-27.31,2.28s-27.35,1.91-27.36,1.77
			c-0.01-0.14,12.22-1.17,27.32-2.29S161.82,364.64,161.83,364.79"/>
		<path clip-path="url(#SVGID_4_)" fill="#263238" d="M261.42,366.81c0,0.15-34.36,2.812-76.76,5.95
			c-42.4,3.141-76.8,5.571-76.81,5.42c-0.01-0.149,34.35-2.8,76.77-5.939C227.04,369.1,261.41,366.67,261.42,366.81"/>
		<path clip-path="url(#SVGID_4_)" fill="#FFC100" d="M165.63,388.32c0,0.14-12.23,1.16-27.32,2.279
			c-15.09,1.12-27.31,1.91-27.31,1.761c0-0.15,12.22-1.16,27.32-2.28S165.61,388.17,165.63,388.32"/>
		<path clip-path="url(#SVGID_4_)" fill="#263238" d="M265.22,390.34c0,0.15-34.37,2.811-76.77,6c-42.4,3.19-76.8,5.57-76.81,5.42
			c-0.01-0.149,34.36-2.8,76.77-5.94C230.82,392.68,265.199,390.2,265.22,390.34"/>
		
			<rect x="106.038" y="290.394" transform="matrix(-0.9973 0.0738 -0.0738 -0.9973 252.4225 583.4064)" clip-path="url(#SVGID_4_)" fill="#FFC100" width="18.8" height="11.941"/>
		
			<rect x="112.235" y="302.32" transform="matrix(-0.9973 0.0737 -0.0737 -0.9973 254.1322 598.998)" clip-path="url(#SVGID_4_)" fill="#FFC100" width="7.549" height="3.74"/>
		<path clip-path="url(#SVGID_4_)" fill="#FFC100" d="M122.81,305.42c-2.067,0.448-4.167,0.727-6.28,0.83
			c-2.098,0.277-4.216,0.378-6.33,0.3c2.068-0.443,4.168-0.716,6.28-0.819C118.579,305.458,120.695,305.354,122.81,305.42"/>
		<polygon clip-path="url(#SVGID_4_)" fill="#FFC100" points="275.87,276.18 287.59,269.75 299.13,274.13 288.32,280.93 		"/>
		<polygon clip-path="url(#SVGID_4_)" fill="#FFC100" points="278.68,278.87 279.15,286.17 297.21,284.58 296.59,277.54 
			288.25,282.58 		"/>
		<path clip-path="url(#SVGID_4_)" fill="#FFC100" d="M350,277.6c0,0.15-9.12,0.94-20.39,1.771
			c-11.271,0.829-20.42,1.398-20.431,1.259c-0.01-0.14,9.12-0.939,20.391-1.78C340.84,278.01,350,277.46,350,277.6"/>
		<path clip-path="url(#SVGID_4_)" fill="#263238" d="M308.13,302.7c0,0.14-6.27,0.72-14,1.29c-7.729,0.569-14.05,0.93-14.06,0.779
			c-0.011-0.149,6.27-0.72,14-1.3C301.8,302.89,308.12,302.55,308.13,302.7"/>
		<path clip-path="url(#SVGID_4_)" fill="#263238" d="M359.64,309c0,0.15-17.63,1.57-39.39,3.18c-21.76,1.61-39.43,2.801-39.44,2.66
			c-0.01-0.14,17.631-1.57,39.4-3.18C341.98,310.05,359.63,308.9,359.64,309"/>
		<path clip-path="url(#SVGID_4_)" fill="#263238" d="M310.23,328.66c0,0.149-6.261,0.729-14,1.3c-7.74,0.57-14,0.93-14.051,0.78
			c-0.05-0.15,6.261-0.721,14-1.3C303.92,328.86,310.22,328.52,310.23,328.66"/>
		<path clip-path="url(#SVGID_4_)" fill="#263238" d="M361.74,335c0,0.15-17.63,1.57-39.391,3.18
			c-21.76,1.61-39.42,2.801-39.439,2.66c-0.021-0.14,17.63-1.57,39.399-3.18C344.08,336.05,361.73,334.87,361.74,335"/>
		<path clip-path="url(#SVGID_4_)" fill="#263238" d="M311.83,354.32c0,0.149-6.271,0.729-14,1.3c-7.73,0.57-14,0.92-14.061,0.78
			c-0.06-0.141,6.271-0.721,14-1.301C305.5,354.52,311.82,354.18,311.83,354.32"/>
		<path clip-path="url(#SVGID_4_)" fill="#263238" d="M363.34,360.67c0,0.15-17.63,1.57-39.39,3.18
			c-21.76,1.61-39.431,2.801-39.44,2.66c-0.01-0.14,17.63-1.569,39.4-3.18C345.68,361.72,363.33,360.53,363.34,360.67"/>
		<path clip-path="url(#SVGID_4_)" fill="#263238" d="M314.69,381.46c0,0.14-6.261,0.72-14,1.3c-7.74,0.58-14,0.92-14.051,0.78
			c-0.05-0.14,6.261-0.73,14-1.3C308.379,381.67,314.68,381.32,314.69,381.46"/>
		<path clip-path="url(#SVGID_4_)" fill="#263238" d="M366.2,387.81c0,0.141-17.63,1.562-39.391,3.181
			c-21.76,1.62-39.42,2.8-39.43,2.649c-0.01-0.149,17.62-1.559,39.39-3.17C348.54,388.86,366.19,387.66,366.2,387.81"/>
		<path clip-path="url(#SVGID_4_)" fill="#FFC100" d="M269.43,87c1.608-0.859,2.552-2.593,2.4-4.41
			c-0.004-2.369-1.927-4.287-4.297-4.284c-2.368,0.003-4.286,1.926-4.283,4.295c0,0.194,0.014,0.387,0.04,0.579
			c0.114,1.812,1.293,3.383,3,4c-6.49,1.47-5.66,8.59-5.66,8.59l15.53-1.08C276.16,94.69,276,87.51,269.43,87"/>
		<path clip-path="url(#SVGID_4_)" fill="#263238" d="M294.73,187.82c0,0.15-6.311,0.73-14.12,1.31
			c-7.811,0.58-14.151,0.93-14.16,0.79c-0.01-0.14,6.31-0.73,14.12-1.31C288.38,188.03,294.72,187.68,294.73,187.82"/>
		<path clip-path="url(#SVGID_4_)" fill="#263238" d="M295.8,200.31c0,0.14-6.31,0.73-14.12,1.31c-7.81,0.58-14.15,0.93-14.16,0.78
			c-0.01-0.15,6.311-0.73,14.12-1.3C289.45,200.53,295.79,200.17,295.8,200.31"/>
		<path clip-path="url(#SVGID_4_)" fill="#E0E0E0" d="M350.66,185.15l-46,3.41c-0.858,0.063-1.606-0.581-1.67-1.44
			c-0.063-0.859,0.581-1.606,1.439-1.67l46-3.41c0.854-0.068,1.601,0.568,1.669,1.422c0.001,0.006,0.001,0.012,0.001,0.018
			c0.068,0.854-0.567,1.601-1.421,1.669C350.672,185.149,350.666,185.15,350.66,185.15"/>
		<path clip-path="url(#SVGID_4_)" fill="#FFC100" d="M343.94,185.65l-39.312,2.91c-0.857,0.063-1.605-0.581-1.669-1.44
			c-0.063-0.859,0.581-1.606,1.44-1.67l39.31-2.91c0.858-0.063,1.606,0.582,1.669,1.44
			C345.438,184.837,344.795,185.581,343.94,185.65"/>
		<path clip-path="url(#SVGID_4_)" fill="#E0E0E0" d="M351.53,196.9l-46,3.4c-0.859,0.063-1.606-0.581-1.67-1.44
			c-0.058-0.856,0.584-1.601,1.44-1.67l46-3.4c0.853-0.068,1.6,0.568,1.668,1.422c0,0.006,0.001,0.012,0.001,0.018
			C353.033,196.089,352.389,196.836,351.53,196.9"/>
		<path clip-path="url(#SVGID_4_)" fill="#FFC100" d="M337.8,197.91l-32.3,2.39c-0.858,0.063-1.606-0.581-1.67-1.44
			c-0.058-0.857,0.584-1.601,1.439-1.67l32.301-2.39c0.858-0.063,1.605,0.581,1.67,1.44
			C339.303,197.098,338.658,197.846,337.8,197.91"/>
		<path clip-path="url(#SVGID_4_)" fill="#263238" d="M297.16,213.06c0,0.14-6.311,0.73-14.12,1.3
			c-7.81,0.57-14.151,0.93-14.16,0.79c-0.01-0.14,6.311-0.73,14.12-1.31C290.81,213.26,297.15,212.91,297.16,213.06"/>
		<path clip-path="url(#SVGID_4_)" fill="#263238" d="M298.23,225.54c0,0.15-6.311,0.729-14.12,1.31
			c-7.811,0.58-14.151,0.931-14.16,0.79c-0.01-0.14,6.31-0.729,14.12-1.31C291.88,225.75,298.22,225.4,298.23,225.54"/>
		<path clip-path="url(#SVGID_4_)" fill="#E0E0E0" d="M353.09,210.38l-46,3.41c-0.858,0.063-1.605-0.581-1.67-1.44
			c-0.063-0.859,0.581-1.606,1.44-1.67l46-3.41c0.858-0.063,1.605,0.582,1.669,1.44c0.069,0.854-0.567,1.601-1.421,1.669
			C353.103,210.379,353.096,210.38,353.09,210.38"/>
		<path clip-path="url(#SVGID_4_)" fill="#FFC100" d="M346.36,210.88l-39.301,2.91c-0.858,0.063-1.605-0.581-1.67-1.44
			c-0.063-0.859,0.582-1.606,1.44-1.67l39.301-2.91c0.857-0.063,1.605,0.582,1.669,1.44c0.068,0.854-0.568,1.601-1.421,1.669
			C346.372,210.879,346.366,210.88,346.36,210.88"/>
		<path clip-path="url(#SVGID_4_)" fill="#E0E0E0" d="M354,222.13l-46,3.41c-0.858,0.063-1.606-0.581-1.67-1.44
			c-0.063-0.859,0.581-1.605,1.439-1.67l46-3.41c0.859-0.063,1.606,0.582,1.671,1.44C355.503,221.319,354.858,222.066,354,222.13"/>
		<path clip-path="url(#SVGID_4_)" fill="#FFC100" d="M340.23,223.15l-32.301,2.39c-0.858,0.063-1.605-0.581-1.67-1.44
			c-0.063-0.859,0.582-1.605,1.44-1.67L340,220c0.858-0.063,1.606,0.582,1.67,1.44c0.085,0.857-0.541,1.622-1.398,1.707
			C340.258,223.148,340.244,223.149,340.23,223.15"/>
		<path clip-path="url(#SVGID_4_)" fill="#263238" d="M299.84,238.85c0,0.15-6.32,0.73-14.13,1.311s-14.15,0.93-14.16,0.79
			c-0.01-0.141,6.311-0.73,14.12-1.311C293.48,239.06,299.83,238.71,299.84,238.85"/>
		<path clip-path="url(#SVGID_4_)" fill="#E0E0E0" d="M355.77,236.18l-46,3.4c-0.858,0.063-1.605-0.581-1.67-1.44
			c-0.052-0.854,0.587-1.596,1.44-1.67l46-3.399c0.86-0.063,1.61,0.579,1.68,1.439C357.277,235.37,356.63,236.117,355.77,236.18"/>
		<path clip-path="url(#SVGID_4_)" fill="#FFC100" d="M335.27,237.69l-25.539,1.89c-0.859,0.063-1.607-0.581-1.671-1.44
			c-0.052-0.854,0.587-1.596,1.439-1.67l25.5-1.89c0.857-0.058,1.602,0.584,1.671,1.439
			C336.734,236.864,336.112,237.605,335.27,237.69"/>
		<path clip-path="url(#SVGID_4_)" fill="#FFC100" d="M279.42,175.1l-1.62-2.85c2.263-3.582,1.193-8.318-2.389-10.581
			c-3.581-2.262-8.318-1.193-10.58,2.389c-2.263,3.581-1.193,8.318,2.388,10.581c2.712,1.712,6.202,1.557,8.751-0.389L279.42,175.1z
			"/>
		<path clip-path="url(#SVGID_4_)" fill="#FFC100" d="M338.53,164.25c0,0.15-10.65,1.06-23.82,2s-23.85,1.65-23.86,1.51
			c-0.01-0.14,10.65-1.05,23.82-2C327.84,164.81,338.52,164.11,338.53,164.25"/>
		<polygon clip-path="url(#SVGID_4_)" fill="#EBEBEB" points="68.09,53.38 87.19,279.33 255.72,266.79 237.52,40.44 		"/>
		
			<rect x="82.543" y="39.454" transform="matrix(-0.9976 0.0698 -0.0698 -0.9976 342.8161 294.3981)" clip-path="url(#SVGID_4_)" fill="#FAFAFA" width="167.438" height="227.475"/>
		<path clip-path="url(#SVGID_4_)" fill="#263238" d="M91,271.81v-0.5L74.22,44.51h0.49L241.78,32.1v0.5l16.79,226.8h-0.5L91,271.81
			z M75.29,45.43L92,270.74l165.57-12.26l-16.71-225.3L75.29,45.43z"/>
		<path clip-path="url(#SVGID_4_)" fill="#263238" d="M207.81,66.9c-0.034-0.125-0.057-0.251-0.07-0.38c0-0.28-0.09-0.65-0.16-1.12
			c-0.13-1-0.32-2.47-0.55-4.32c-0.23-1.85-0.52-4.19-0.85-6.85c-0.133-1.418-0.35-2.828-0.65-4.22
			c-0.174-0.746-0.482-1.455-0.91-2.09c-0.442-0.659-1.088-1.155-1.84-1.41c-1.675-0.464-3.47-0.007-4.72,1.2
			c-1.318,1.367-2.166,3.118-2.42,5c-0.62,4.159-0.498,8.394,0.36,12.51c0.39,2.19,0.81,4.45,1.31,6.73
			c0.452,2.322,1.279,4.554,2.45,6.61c1.228,2.103,3.158,3.707,5.45,4.53c1.158,0.41,2.405,0.499,3.61,0.26
			c1.218-0.252,2.34-0.842,3.24-1.7c1.795-1.758,2.917-4.09,3.17-6.59c0.227-2.446,0.164-4.91-0.19-7.34
			c-0.54-4.84-1.06-9.5-1.56-14c-0.25-2.22-0.49-4.39-0.72-6.49s-0.44-4.15-0.82-6.09c-0.318-1.877-0.894-3.7-1.71-5.42
			c-0.753-1.576-1.85-2.963-3.21-4.06c-2.416-1.835-5.412-2.74-8.44-2.55c-2.29,0.073-4.492,0.895-6.27,2.34
			c-1.091,0.946-1.918,2.159-2.4,3.52c-0.32,0.94-0.39,1.46-0.43,1.46c0.055-0.507,0.165-1.007,0.33-1.49
			c0.448-1.402,1.263-2.659,2.36-3.64c1.798-1.509,4.045-2.381,6.39-2.48c3.106-0.228,6.19,0.679,8.68,2.55
			c1.418,1.119,2.563,2.545,3.35,4.17c0.843,1.75,1.442,3.608,1.78,5.52c0.38,2,0.6,4,0.85,6.12c0.25,2.12,0.48,4.27,0.74,6.49
			c0.5,4.44,1,9.11,1.58,13.94c0.368,2.473,0.435,4.981,0.2,7.47c-0.265,2.623-1.444,5.069-3.33,6.91
			c-0.973,0.918-2.181,1.548-3.49,1.82c-1.291,0.253-2.626,0.159-3.87-0.27c-2.406-0.872-4.432-2.555-5.73-4.76
			c-1.188-2.108-2.029-4.394-2.49-6.77c-0.5-2.3-0.91-4.55-1.3-6.76c-0.87-4.182-0.989-8.486-0.35-12.71
			c0.294-1.955,1.196-3.767,2.58-5.18c1.359-1.298,3.305-1.774,5.11-1.25c0.818,0.29,1.52,0.837,2,1.56
			c0.444,0.67,0.763,1.416,0.94,2.2c0.292,1.413,0.499,2.842,0.62,4.28c0.29,2.66,0.55,5,0.76,6.85s0.35,3.31,0.46,4.33
			c0,0.48,0.08,0.85,0.1,1.13C207.784,66.605,207.804,66.752,207.81,66.9"/>
		<path clip-path="url(#SVGID_4_)" fill="#FFC100" d="M127.208,203.547c0,0-13.491,10.717-12.587,33.313
			c0.305,7.58,5.817,31.375,5.817,31.375l83.146-5.875L183.216,199l-26.599-4.043L127.208,203.547z"/>
		<polygon clip-path="url(#SVGID_4_)" fill="#263238" points="160.212,217.906 152.418,265.992 180.736,264.067 		"/>
		<path clip-path="url(#SVGID_4_)" fill="#263238" d="M159.018,207.708c0.127,0.503,0.216,1.016,0.265,1.533
			c0.143,1.034,0.318,2.308,0.515,3.72c0.196,1.413,0.347,2.773,0.439,3.726c0.073,0.516,0.099,1.037,0.081,1.557
			c-0.128-0.503-0.216-1.015-0.265-1.533c-0.142-1.029-0.319-2.308-0.514-3.715c-0.196-1.408-0.348-2.773-0.435-3.732
			C159.029,208.75,159,208.229,159.018,207.708"/>
		<path clip-path="url(#SVGID_4_)" fill="#263238" d="M164.534,212.533c0.002,0.025-0.18,0.079-0.482,0.277
			c-0.394,0.279-0.696,0.669-0.866,1.12c-0.272,0.662-0.177,1.417,0.249,1.992c0.662,0.969,1.984,1.218,2.953,0.557
			c0.499-0.34,0.829-0.876,0.909-1.474c0.128-0.697-0.116-1.41-0.643-1.882c-0.355-0.328-0.8-0.541-1.278-0.613
			c-0.335-0.05-0.504-0.018-0.535-0.04c-0.032-0.023,0.049-0.004,0.137-0.041c0.135-0.029,0.273-0.04,0.41-0.03
			c0.512,0.036,0.998,0.238,1.385,0.575c0.272,0.231,0.49,0.52,0.636,0.847c0.164,0.382,0.214,0.804,0.146,1.215
			c-0.169,1.292-1.354,2.203-2.647,2.034c-0.67-0.088-1.27-0.459-1.649-1.019c-0.244-0.337-0.387-0.736-0.412-1.151
			c-0.012-0.349,0.053-0.697,0.189-1.019c0.195-0.476,0.539-0.875,0.981-1.139c0.116-0.072,0.243-0.127,0.374-0.163
			C164.484,212.532,164.528,212.523,164.534,212.533"/>
		<path clip-path="url(#SVGID_4_)" fill="#263238" d="M175.521,237.647c0,0-0.18,0.083-0.482,0.276
			c-0.393,0.279-0.692,0.669-0.861,1.12c-0.272,0.661-0.178,1.417,0.249,1.991c0.661,0.97,1.984,1.219,2.953,0.558
			c0.498-0.34,0.829-0.876,0.909-1.474c0.127-0.696-0.117-1.409-0.643-1.882c-0.354-0.328-0.797-0.542-1.272-0.612
			c-0.341-0.052-0.535-0.017-0.537-0.041c0.043-0.023,0.09-0.037,0.138-0.04c0.133-0.028,0.27-0.038,0.405-0.031
			c0.514,0.037,1.002,0.24,1.39,0.579c0.272,0.229,0.488,0.518,0.631,0.843c0.168,0.382,0.219,0.805,0.146,1.215
			c-0.158,1.289-1.33,2.205-2.618,2.048c-0.682-0.084-1.293-0.461-1.673-1.033c-0.249-0.334-0.392-0.734-0.413-1.15
			c-0.013-0.35,0.052-0.698,0.191-1.02c0.194-0.476,0.538-0.875,0.98-1.139c0.117-0.07,0.243-0.126,0.375-0.163
			C175.431,237.671,175.476,237.656,175.521,237.647"/>
		<path clip-path="url(#SVGID_4_)" fill="#263238" d="M144.732,221.113c-0.046,0.083-0.101,0.162-0.164,0.233
			c-0.109,0.149-0.273,0.368-0.5,0.641c-0.647,0.768-1.345,1.491-2.089,2.166c-2.48,2.214-5.407,3.866-8.583,4.848
			c-1.742,0.559-3.56,0.843-5.389,0.845c-1.508,0.004-2.989-0.407-4.28-1.188c-0.863-0.537-1.58-1.279-2.086-2.161
			c-0.129-0.24-0.238-0.491-0.327-0.749c-0.035-0.089-0.058-0.182-0.066-0.276c0.025-0.002,0.128,0.372,0.484,0.969
			c0.524,0.841,1.242,1.543,2.093,2.05c1.27,0.74,2.715,1.127,4.184,1.119c1.804-0.02,3.595-0.31,5.313-0.859
			c3.143-0.972,6.049-2.585,8.536-4.738c0.749-0.654,1.46-1.35,2.131-2.084l0.542-0.608
			C144.656,221.174,144.722,221.114,144.732,221.113"/>
		<path clip-path="url(#SVGID_4_)" fill="#263238" d="M145.082,225.79c-0.046,0.084-0.101,0.162-0.164,0.233
			c-0.109,0.149-0.273,0.371-0.499,0.646c-2.809,3.313-6.515,5.746-10.673,7.004c-1.742,0.56-3.56,0.846-5.389,0.85
			c-1.508,0.001-2.988-0.409-4.28-1.188c-0.864-0.534-1.58-1.275-2.086-2.156c-0.129-0.243-0.239-0.494-0.327-0.754
			c-0.036-0.089-0.058-0.182-0.066-0.276c0.025-0.002,0.128,0.371,0.484,0.969c0.524,0.842,1.242,1.546,2.093,2.055
			c1.271,0.738,2.715,1.123,4.184,1.114c1.805-0.018,3.596-0.309,5.313-0.859c3.141-0.972,6.048-2.584,8.536-4.733
			c0.749-0.655,1.46-1.353,2.131-2.09l0.542-0.607C144.94,225.92,145.007,225.851,145.082,225.79"/>
		<path clip-path="url(#SVGID_4_)" fill="#263238" d="M145.711,224.321c0.022,0.063,0.04,0.13,0.05,0.197
			c0.011,0.145,0.06,0.342,0.109,0.59c0.1,0.535,0.243,1.299,0.422,2.276c0.358,1.981,0.972,4.815,1.42,8.385
			c0.249,1.948,0.353,3.909,0.313,5.872c-0.037,2.259-0.377,4.504-1.009,6.673c-0.696,2.412-1.918,4.641-3.578,6.524
			c-0.882,0.991-1.892,1.86-3.003,2.587c-1.15,0.741-2.411,1.296-3.737,1.64c-2.646,0.636-5.431,0.332-7.878-0.858
			c-2.28-1.076-4.255-2.704-5.746-4.736c-1.319-1.84-2.321-3.886-2.965-6.056c-0.57-1.885-0.948-3.822-1.126-5.785
			c-0.222-2.829-0.233-5.673-0.032-8.505c0.07-1.011,0.124-1.769,0.159-2.309c0.021-0.253,0.041-0.45,0.05-0.602
			c0.005-0.068,0.015-0.137,0.03-0.203c0.012,0.067,0.018,0.136,0.016,0.205c0.011,0.149-0.015,0.348-0.026,0.6
			c-0.024,0.544-0.062,1.321-0.114,2.31c-0.156,2.827-0.112,5.662,0.132,8.483c0.187,1.942,0.57,3.862,1.141,5.729
			c0.65,2.14,1.65,4.157,2.959,5.97c1.462,2.001,3.401,3.604,5.64,4.665c2.394,1.164,5.118,1.459,7.706,0.836
			c1.298-0.333,2.534-0.875,3.659-1.605c1.094-0.711,2.088-1.564,2.956-2.537c1.64-1.853,2.849-4.045,3.541-6.421
			c0.63-2.147,0.971-4.37,1.014-6.608c0.05-1.952-0.044-3.905-0.281-5.844c-0.422-3.562-0.982-6.414-1.336-8.393
			c-0.174-0.992-0.298-1.762-0.377-2.283c-0.018-0.25-0.063-0.447-0.084-0.597C145.714,224.371,145.711,224.321,145.711,224.321"/>
		<g opacity="0.2" clip-path="url(#SVGID_4_)">
			<g>
				<defs>
					<rect id="SVGID_5_" x="121.539" y="249.133" width="25.352" height="12.746"/>
				</defs>
				<clipPath id="SVGID_6_">
					<use xlink:href="#SVGID_5_"  overflow="visible"/>
				</clipPath>
				<path clip-path="url(#SVGID_6_)" d="M121.554,251.017c1.127,2.98,1.571,3.741,3.437,6.05c1.728,2.189,4.132,3.746,6.838,4.424
					c3.937,1.038,8.131-0.035,11.085-2.839c2.863-2.78,3.647-6.805,3.977-9.519c-1.195,1.889-2.42,4.538-3.983,6.138
					c-1.564,1.599-3.682,3.054-5.862,3.604c-2.961,0.724-6.601,0.091-9.286-1.347c-2.686-1.438-4.453-4.239-6.221-6.505"/>
			</g>
		</g>
		<g opacity="0.2" clip-path="url(#SVGID_4_)">
			<g>
				<defs>
					<rect id="SVGID_7_" x="122.244" y="231.472" width="14.34" height="4.51"/>
				</defs>
				<clipPath id="SVGID_8_">
					<use xlink:href="#SVGID_7_"  overflow="visible"/>
				</clipPath>
				<path clip-path="url(#SVGID_8_)" d="M122.244,231.472c1.35,2.493,3.841,4.162,6.661,4.462c2.74,0.298,6.18-0.818,7.679-3.482
					C130.793,234.983,124.885,235.476,122.244,231.472"/>
			</g>
		</g>
		<path clip-path="url(#SVGID_4_)" fill="#263238" d="M170.563,220.449c-0.126,0.031-0.256,0.041-0.385,0.029
			c-0.342-0.022-0.681-0.07-1.016-0.145c-2.276-0.495-4.294-1.802-5.677-3.677c-0.21-0.28-0.4-0.575-0.568-0.882
			c-0.112-0.223-0.166-0.345-0.147-0.356c0.019-0.011,0.305,0.449,0.848,1.128c0.714,0.873,1.556,1.632,2.5,2.25
			c0.949,0.609,1.987,1.068,3.076,1.358C170.028,220.348,170.564,220.404,170.563,220.449"/>
		<g opacity="0.2" clip-path="url(#SVGID_4_)">
			<g>
				<defs>
					<rect id="SVGID_9_" x="163.254" y="215.709" width="7.815" height="4.47"/>
				</defs>
				<clipPath id="SVGID_10_">
					<use xlink:href="#SVGID_9_"  overflow="visible"/>
				</clipPath>
				<path clip-path="url(#SVGID_10_)" d="M163.254,215.709c0.771,2.043,3.235,3.818,5.35,4.349c0.415,0.12,0.851,0.151,1.278,0.09
					c0.433-0.062,0.815-0.314,1.044-0.686c0.386-0.697-0.06-1.613-0.735-2.035c-0.711-0.364-1.49-0.578-2.288-0.628
					c-1.622-0.251-3.001,0.661-4.42-0.58"/>
			</g>
		</g>
		<g opacity="0.2" clip-path="url(#SVGID_4_)">
			<g>
				<defs>
					<rect id="SVGID_11_" x="118.768" y="208.24" width="26.274" height="9.175"/>
				</defs>
				<clipPath id="SVGID_12_">
					<use xlink:href="#SVGID_11_"  overflow="visible"/>
				</clipPath>
				<path clip-path="url(#SVGID_12_)" d="M118.768,215.143c3.971,2.979,9.249,2.726,13.887,0.973
					c4.638-1.754,8.574-4.697,12.387-7.876c-4.327,1.203-7.926,3.486-12.31,4.472c-4.186,0.941-8.584,1.335-12.852,0.232"/>
			</g>
		</g>
		<path clip-path="url(#SVGID_4_)" fill="#263238" d="M194,259.855c-0.026,0.025-0.057,0.047-0.091,0.063
			c-0.091,0.058-0.186,0.109-0.284,0.156c-0.377,0.186-0.779,0.317-1.192,0.391c-1.537,0.244-3.11-0.055-4.451-0.844
			c-1.737-0.931-3.379-2.592-5.141-4.44c-1.893-2.031-3.62-4.211-5.165-6.519c-2.805-4.198-5.051-8.743-6.684-13.521
			c-0.639-1.832-1.043-3.34-1.308-4.39c-0.117-0.494-0.214-0.914-0.286-1.209c-0.035-0.142-0.063-0.284-0.082-0.428
			c0.058,0.133,0.104,0.271,0.136,0.412l0.331,1.196c0.293,1.039,0.742,2.538,1.381,4.354c1.677,4.74,3.938,9.254,6.727,13.438
			c1.54,2.296,3.255,4.47,5.129,6.501c1.742,1.851,3.363,3.513,5.051,4.443c1.309,0.79,2.849,1.108,4.364,0.904
			C192.978,260.267,193.504,260.095,194,259.855"/>
		<g opacity="0.2" clip-path="url(#SVGID_4_)">
			<g>
				<defs>
					<rect id="SVGID_13_" x="174.652" y="242.757" width="19.896" height="17.703"/>
				</defs>
				<clipPath id="SVGID_14_">
					<use xlink:href="#SVGID_13_"  overflow="visible"/>
				</clipPath>
				<path clip-path="url(#SVGID_14_)" d="M174.652,242.758c0,0,8.069,8.724,13.621,10.596c1.882,0.638,3.938,1.117,5.297,2.563
					c0.683,0.666,1.038,1.6,0.97,2.551c-0.013,0.112-0.038,0.222-0.076,0.327c-0.627,2.032-4.371,2.035-6.168,0.913
					c-0.786-0.488-0.32-0.172-0.953-0.577C185.522,257.961,175.493,247.961,174.652,242.758"/>
			</g>
		</g>
		<polygon clip-path="url(#SVGID_4_)" fill="#E0E0E0" points="132.736,120.006 137.374,118.72 160.677,117.255 172.7,118.97 
			182.148,184.688 130.033,191.039 		"/>
		<path clip-path="url(#SVGID_4_)" fill="#FFC100" d="M171.456,182.432l-1.13-30.127l-4.457-34.699
			c7.498,1.345,17.714,2.697,23.761,8.633c3.921,3.852,7.858,8.86,9.832,17.25c2.286,9.88,5.743,28.843,7.811,39.443"/>
		<path clip-path="url(#SVGID_4_)" fill="#FFC100" d="M178.484,176.952l-35.717,8.573l-2.948-22.232l-5.296-43.993
			c-10.463,1.214-21.759,10.777-24.837,17.801c-2.149,4.874-3.835,10.478-4.096,15.799c-0.508,10.089-1.352,27.373-1.822,38.167
			c-0.285,6.644,2.435,13.062,7.406,17.478c5.652,5.02,14.008,6.28,21.28,4.199l53.893-19.605L178.484,176.952z"/>
		<path clip-path="url(#SVGID_4_)" fill="#263238" d="M174.636,176.837c0-0.043,0.005-0.085,0.016-0.127
			c0.023-0.092,0.049-0.215,0.078-0.368c0.08-0.342,0.185-0.817,0.325-1.426c0.298-1.259,0.721-3.069,1.247-5.309l4.349-18.135
			l0.086,0.15l-6.043-1.986l-0.237-0.078l0.195-0.15l1.288-0.991l4.207-3.219l-0.04,0.144c-2.832-7.638-5.325-14.377-7.119-19.223
			c-0.879-2.407-1.586-4.344-2.084-5.693c-0.23-0.662-0.415-1.175-0.548-1.543c-0.055-0.159-0.1-0.292-0.135-0.397
			c-0.02-0.043-0.033-0.089-0.041-0.137c0,0,0.004,0.04,0.06,0.126l0.161,0.395c0.142,0.362,0.341,0.869,0.591,1.524l2.157,5.663
			l7.198,19.197l0.032,0.087l-0.076,0.061l-4.202,3.224l-1.288,0.986l-0.017-0.23l6.039,1.996l0.113,0.037l-0.027,0.112
			c-1.779,7.264-3.332,13.586-4.44,18.117c-0.561,2.242-1.005,4.04-1.319,5.289c-0.156,0.605-0.281,1.081-0.366,1.42
			c-0.039,0.148-0.076,0.266-0.098,0.363C174.681,176.759,174.661,176.799,174.636,176.837"/>
		<g opacity="0.2" clip-path="url(#SVGID_4_)">
			<g>
				<defs>
					<rect id="SVGID_15_" x="174.303" y="145.366" width="7.565" height="32.33"/>
				</defs>
				<clipPath id="SVGID_16_">
					<use xlink:href="#SVGID_15_"  overflow="visible"/>
				</clipPath>
				<path clip-path="url(#SVGID_16_)" d="M180.325,145.366c-0.214,1.105-0.78,2.112-1.615,2.869
					c-0.66,0.446-0.226,0.942,0.385,1.449c0.734,0.608,1.847,0.706,2.411,1.468c0.565,0.762,0.348,1.698,0.151,2.557
					c-1.908,8.152-4.365,16.166-7.354,23.987l6.48-26.198l-6.032-1.977L180.325,145.366z"/>
			</g>
		</g>
		<path clip-path="url(#SVGID_4_)" fill="#263238" d="M139.336,180.098c-0.027-0.03-0.05-0.064-0.067-0.101
			c-0.041-0.077-0.099-0.173-0.163-0.299l-0.631-1.179c-0.551-1.044-1.337-2.548-2.341-4.423l-7.922-15.298l-0.047-0.087
			l0.081-0.066l4.375-3.654l0.014,0.19l-3.245-2.2l-1.439-0.968l-0.712-0.449l-0.175-0.123c-0.036-0.022-0.07-0.048-0.101-0.077
			c-0.035-0.04-0.063-0.085-0.081-0.135c-0.047-0.146-0.077-0.298-0.088-0.451c-0.053-1.12-0.033-2.243,0.06-3.361
			c0.143-2.187,0.348-4.293,0.535-6.297c0.414-4.005,0.854-7.602,1.215-10.644c0.36-3.042,0.707-5.464,0.938-7.15
			c0.118-0.833,0.215-1.484,0.281-1.946l0.078-0.508c0.004-0.058,0.017-0.115,0.038-0.169c0.001,0.059-0.003,0.119-0.012,0.177
			c0.009,0.125-0.033,0.294-0.053,0.507c-0.056,0.462-0.133,1.111-0.231,1.946c-0.205,1.704-0.495,4.148-0.852,7.16
			c-0.358,3.011-0.772,6.626-1.175,10.641c-0.197,1.999-0.397,4.105-0.536,6.286c-0.09,1.105-0.11,2.214-0.058,3.321
			c0.008,0.128,0.033,0.254,0.073,0.377c0.005,0.06,0.157,0.139,0.268,0.221l0.709,0.479l1.435,0.973l3.239,2.196l0.144,0.1
			l-0.133,0.11l-4.381,3.644l0.028-0.158l7.884,15.321c0.961,1.893,1.725,3.389,2.258,4.46c0.254,0.509,0.455,0.905,0.592,1.197
			l0.144,0.311C139.303,180.012,139.322,180.055,139.336,180.098"/>
		<path clip-path="url(#SVGID_4_)" fill="#FFC100" d="M144.583,152.251l36.85,2.898c0.665,0.053,1.161,0.634,1.109,1.299
			l-4.052,51.517c-0.052,0.665-0.634,1.162-1.299,1.11l-36.849-2.899c-0.665-0.052-1.162-0.633-1.11-1.299l4.053-51.517
			C143.336,152.695,143.917,152.2,144.583,152.251"/>
		<g opacity="0.2" clip-path="url(#SVGID_4_)">
			<g>
				<defs>
					<rect id="SVGID_17_" x="139.228" y="152.248" width="43.317" height="56.831"/>
				</defs>
				<clipPath id="SVGID_18_">
					<use xlink:href="#SVGID_17_"  overflow="visible"/>
				</clipPath>
				<path clip-path="url(#SVGID_18_)" d="M144.583,152.251l36.85,2.898c0.665,0.053,1.161,0.634,1.109,1.299l-4.052,51.517
					c-0.052,0.665-0.634,1.162-1.299,1.11l-36.849-2.899c-0.665-0.052-1.162-0.633-1.11-1.299l4.053-51.517
					C143.336,152.695,143.917,152.2,144.583,152.251"/>
			</g>
		</g>
		
			<rect x="143.452" y="154.769" transform="matrix(-0.9969 -0.0784 0.0784 -0.9969 307.2816 371.9571)" clip-path="url(#SVGID_4_)" fill="#EBEBEB" width="34.984" height="50.353"/>
		<path clip-path="url(#SVGID_4_)" fill="#263238" d="M169.937,156.178c-0.614-1.503-2.023-2.531-3.641-2.658l0.131-2.145
			c0.126-1.62-1.084-3.036-2.704-3.165c-1.622-0.129-3.041,1.082-3.17,2.704l-0.175,2.224l-0.747-0.044
			c-1.599-0.102-3.119,0.698-3.941,2.073l-0.515,0.843l15.165,1.198L169.937,156.178z M163.45,152.763
			c-0.872-0.067-1.524-0.829-1.457-1.701s0.829-1.524,1.701-1.457c0.872,0.068,1.524,0.829,1.457,1.701v0.003
			C165.079,152.179,164.32,152.827,163.45,152.763"/>
		<path clip-path="url(#SVGID_4_)" fill="#263238" d="M157.835,161.615c-1.583,0.009-3.167-0.071-4.741-0.239
			c-1.58-0.083-3.155-0.25-4.717-0.502c1.583-0.008,3.164,0.072,4.737,0.24C154.696,161.196,156.272,161.363,157.835,161.615"/>
		<path clip-path="url(#SVGID_4_)" fill="#263238" d="M152.81,162.824c-0.763,0.074-1.531,0.057-2.29-0.05
			c-0.766-0.016-1.527-0.12-2.269-0.308c0.763-0.067,1.531-0.051,2.29,0.05C151.307,162.533,152.067,162.636,152.81,162.824"/>
		<path clip-path="url(#SVGID_4_)" fill="#263238" d="M174.675,169.02c0.005,0.07-5.905-0.338-13.168-0.906
			c-7.264-0.568-13.148-1.098-13.153-1.168c-0.006-0.07,5.899,0.333,13.168,0.906C168.792,168.424,174.679,168.944,174.675,169.02"
			/>
		<path clip-path="url(#SVGID_4_)" fill="#263238" d="M174.476,171.527c0.005,0.07-5.899-0.333-13.168-0.906
			c-7.269-0.572-13.148-1.093-13.153-1.163c-0.005-0.07,5.9,0.334,13.169,0.906C168.593,170.938,174.48,171.457,174.476,171.527"/>
		<path clip-path="url(#SVGID_4_)" fill="#263238" d="M174.281,174.04c0.005,0.07-5.905-0.338-13.168-0.906
			c-7.264-0.568-13.148-1.098-13.153-1.168c-0.006-0.07,5.904,0.333,13.173,0.906C168.403,173.444,174.285,173.964,174.281,174.04"
			/>
		<path clip-path="url(#SVGID_4_)" fill="#263238" d="M174.082,176.547c0.005,0.07-5.899-0.333-13.168-0.906
			c-7.27-0.572-13.148-1.093-13.154-1.168c-0.005-0.074,5.9,0.339,13.169,0.911C168.198,175.957,174.106,176.475,174.082,176.547"/>
		<path clip-path="url(#SVGID_4_)" fill="#263238" d="M173.882,179.054c0.005,0.075-5.899-0.333-13.168-0.905
			c-7.269-0.573-13.148-1.094-13.153-1.163c-0.005-0.071,5.899,0.333,13.168,0.905C168,178.464,173.892,178.983,173.882,179.054"/>
		<path clip-path="url(#SVGID_4_)" fill="#263238" d="M173.688,181.566c0.005,0.07-5.904-0.333-13.168-0.906
			c-7.265-0.573-13.148-1.093-13.153-1.168c-0.006-0.074,5.899,0.333,13.168,0.906C167.804,180.97,173.693,181.496,173.688,181.566"
			/>
		<path clip-path="url(#SVGID_4_)" fill="#263238" d="M160.352,182.794c-0.167,0.021-0.334,0.023-0.502,0.007
			c-0.337-0.009-0.816-0.034-1.412-0.07c-1.196-0.071-2.843-0.185-4.658-0.325c-1.814-0.141-3.459-0.29-4.648-0.407
			c-0.597-0.056-1.074-0.111-1.408-0.151c-0.174-0.008-0.345-0.038-0.51-0.093c0.166-0.023,0.335-0.026,0.502-0.007
			c0.337,0.01,0.817,0.035,1.412,0.07c1.196,0.067,2.843,0.185,4.658,0.326s3.459,0.289,4.649,0.406
			c0.597,0.057,1.073,0.111,1.408,0.151C160.016,182.709,160.187,182.74,160.352,182.794"/>
		<path clip-path="url(#SVGID_4_)" fill="#263238" d="M176.309,162.842c-0.705,0.074-1.417,0.062-2.118-0.038
			c-0.709-0.011-1.414-0.11-2.098-0.295C173.507,162.447,174.923,162.561,176.309,162.842"/>
		<path clip-path="url(#SVGID_4_)" fill="#263238" d="M153.937,187.791c-1.145,0.04-2.291-0.008-3.428-0.141
			c-1.144-0.046-2.283-0.179-3.406-0.399c1.144-0.039,2.29,0.008,3.427,0.141C151.673,187.439,152.813,187.573,153.937,187.791"/>
		<path clip-path="url(#SVGID_4_)" fill="#263238" d="M153.988,190.089c-1.165,0.038-2.331-0.012-3.489-0.146
			c-1.162-0.045-2.32-0.18-3.462-0.405c1.163-0.037,2.327,0.011,3.483,0.147C151.685,189.729,152.844,189.864,153.988,190.089"/>
		<path clip-path="url(#SVGID_4_)" fill="#263238" d="M173.787,189.012c-1.107,0.086-2.221,0-3.301-0.256
			c0.551-0.085,1.112-0.087,1.663-0.004C172.705,188.749,173.259,188.837,173.787,189.012"/>
		<path clip-path="url(#SVGID_4_)" fill="#263238" d="M173.74,191.07c-1.107,0.086-2.22,0-3.3-0.256
			C171.546,190.729,172.66,190.814,173.74,191.07"/>
		<path clip-path="url(#SVGID_4_)" fill="#263238" d="M150.61,192.23c-0.533,0.084-1.075,0.086-1.608,0.005
			c-0.538,0-1.072-0.088-1.582-0.259c0.53-0.087,1.072-0.089,1.603-0.004C149.563,191.971,150.099,192.059,150.61,192.23"/>
		<path clip-path="url(#SVGID_4_)" fill="#263238" d="M173.668,193.473c-0.396,0.096-0.808,0.107-1.208,0.035
			c-0.408,0.01-0.812-0.066-1.188-0.222c0.395-0.102,0.808-0.116,1.208-0.041C172.888,193.235,173.293,193.313,173.668,193.473"/>
		<path clip-path="url(#SVGID_4_)" fill="#263238" d="M146.782,197.366c0.195-0.032,0.392-0.047,0.59-0.044l1.662-0.074l5.945-0.208
			l0.135-0.01l-0.02,0.132c-0.101,0.653-0.426,1.252-0.919,1.692c-0.528,0.491-1.252,0.713-1.965,0.604
			c-0.763-0.118-1.418-0.605-1.751-1.301c-0.316-0.758-0.138-1.631,0.449-2.205c0.209-0.22,0.47-0.384,0.758-0.479
			c0.072-0.024,0.147-0.042,0.222-0.051c0.081-0.016,0.163-0.023,0.245-0.019c0.112,0.01,0.212,0.074,0.269,0.171
			c0.04,0.084,0.057,0.176,0.05,0.268c-0.024,0.564-0.169,1.117-0.426,1.62c-0.251,0.481-0.597,0.907-1.017,1.251
			c-0.409,0.357-0.922,0.572-1.462,0.612c-0.535,0.002-1.024-0.298-1.265-0.775c-0.224-0.425-0.295-0.914-0.204-1.387
			c0.239-0.793,0.668-1.515,1.25-2.103l0.125-0.145l0.015,0.19c0.131,0.683,0.05,1.39-0.231,2.027
			c-0.208,0.481-0.519,0.911-0.911,1.259c-0.244,0.22-0.52,0.4-0.819,0.534c-0.103,0.05-0.212,0.085-0.324,0.105
			c0.395-0.179,0.759-0.42,1.077-0.714c0.362-0.351,0.647-0.773,0.837-1.239c0.257-0.614,0.32-1.292,0.182-1.943l0.163,0.038
			c-0.551,0.574-0.956,1.274-1.179,2.038c-0.078,0.422-0.01,0.859,0.193,1.237c0.2,0.397,0.608,0.647,1.053,0.645
			c0.477-0.041,0.928-0.235,1.286-0.554c0.809-0.661,1.298-1.638,1.341-2.683c0.009-0.045,0.005-0.092-0.009-0.135
			c-0.002-0.025-0.003-0.035-0.074-0.04c-0.121,0.003-0.242,0.023-0.357,0.062c-0.247,0.083-0.471,0.224-0.653,0.411
			c-0.506,0.502-0.661,1.258-0.394,1.919c0.504,1.041,1.757,1.477,2.798,0.973c0.19-0.092,0.365-0.212,0.52-0.357
			c0.456-0.398,0.758-0.943,0.854-1.541l0.115,0.127l-5.903,0.094l-1.667,0.015C147.171,197.389,146.976,197.384,146.782,197.366"/>
		<path clip-path="url(#SVGID_4_)" fill="#263238" d="M171.757,199.244c-0.071,0.12-0.16,0.228-0.262,0.321
			c-0.12,0.119-0.257,0.221-0.405,0.302c-0.209,0.112-0.452,0.142-0.682,0.086c-0.145-0.033-0.275-0.113-0.369-0.229
			c-0.094-0.125-0.154-0.273-0.173-0.429c-0.019-0.32-0.02-0.64-0.001-0.96c0.014-0.684,0.034-1.434,0.054-2.245l0.221,0.069
			l-1.716,2.726l-0.427,0.675l-0.279,0.443l0.038-0.505c0.105-1.35,0.197-2.608,0.28-3.714l0.193,0.085
			c-0.731,0.716-1.365,1.523-1.887,2.403c-0.374,0.636-0.544,1.046-0.572,1.017c0.017-0.101,0.049-0.2,0.094-0.293
			c0.109-0.268,0.232-0.531,0.369-0.786c0.482-0.917,1.097-1.759,1.823-2.498l0.21-0.212l-0.022,0.303
			c-0.069,1.101-0.155,2.363-0.225,3.715l-0.242-0.082l0.451-0.677c0.612-0.96,1.192-1.878,1.732-2.717l0.238-0.38l-0.017,0.449
			c-0.034,0.811-0.064,1.562-0.093,2.243c-0.024,0.309-0.031,0.62-0.021,0.931c0.002,0.248,0.165,0.466,0.402,0.538
			c0.357,0.068,0.726-0.046,0.982-0.305C171.546,199.419,171.648,199.327,171.757,199.244"/>
		<path clip-path="url(#SVGID_4_)" fill="#263238" d="M172.536,197.819c-1.622,0.243-3.256,0.4-4.895,0.471
			c-1.631,0.158-3.27,0.231-4.908,0.216c1.619-0.246,3.252-0.405,4.889-0.476C169.254,197.872,170.895,197.801,172.536,197.819"/>
		<path clip-path="url(#SVGID_4_)" fill="#263238" d="M174.246,199.254c-1.272,0.366-2.567,0.649-3.876,0.848
			c-1.293,0.281-2.603,0.48-3.921,0.594c1.271-0.373,2.566-0.658,3.876-0.853C171.618,199.559,172.927,199.362,174.246,199.254"/>
		<g opacity="0.2" clip-path="url(#SVGID_4_)">
			<g>
				<defs>
					<rect id="SVGID_19_" x="126.696" y="151.048" width="12.435" height="28.663"/>
				</defs>
				<clipPath id="SVGID_20_">
					<use xlink:href="#SVGID_19_"  overflow="visible"/>
				</clipPath>
				<path clip-path="url(#SVGID_20_)" d="M126.944,151.048c0.052,1.504,0.571,3.003,1.883,3.754c-1.507,0.876-2.206,2.758-2.126,4.5
					c0.08,1.744,0.811,3.387,1.587,4.953c2.394,4.811,7.234,11.475,10.843,15.456c0,0-2.005-4.373-2.563-5.392
					c-2.524-4.58-4.793-9.189-7.322-13.784c-0.278-0.482-0.816-1.909-0.816-1.909c0.228-0.135,0.435-0.301,0.616-0.494
					c1.145-1.09,3.657-3.042,3.657-3.042S126.955,151.198,126.944,151.048"/>
			</g>
		</g>
		<path clip-path="url(#SVGID_4_)" fill="#263238" d="M127.631,161.248c0.07-0.005,0.376,5.776,0.678,12.905
			c0.301,7.128,0.492,12.913,0.422,12.913s-0.381-5.771-0.683-12.904C127.747,167.029,127.556,161.248,127.631,161.248"/>
		<path clip-path="url(#SVGID_4_)" fill="#263238" d="M135.104,145.448l-0.5,0.037c-0.014-0.19-0.702-19.149-0.699-26.717
			c-0.043-1.07,0.358-2.111,1.106-2.877c1.46-1.45,3.807-1.45,3.912-1.453l-0.003,0.503c-0.024,0.002-2.24,0.007-3.55,1.305
			c-0.652,0.675-1,1.587-0.963,2.525C134.416,126.283,135.113,145.236,135.104,145.448"/>
		<path clip-path="url(#SVGID_4_)" fill="#455A64" d="M142.149,176.722l-0.885,0.066l-0.074-1l0.884-0.066
			c1.932-0.144,3.382-1.827,3.237-3.759l-0.791-10.584l1-0.075l0.791,10.585C146.497,174.372,144.633,176.536,142.149,176.722"/>
		<path clip-path="url(#SVGID_4_)" fill="#263238" d="M142.481,176.315c-0.014,0.595-0.508,1.066-1.103,1.052
			c-0.594-0.014-1.065-0.508-1.051-1.102c0.013-0.595,0.507-1.066,1.102-1.053C142.023,175.229,142.492,175.721,142.481,176.315"/>
		<path clip-path="url(#SVGID_4_)" fill="#455A64" d="M133.502,177.343l-0.884,0.066c-2.485,0.185-4.649-1.678-4.834-4.162
			l-0.751-10.587l1-0.075l0.75,10.588c0.145,1.932,1.828,3.381,3.76,3.236l0.884-0.066L133.502,177.343z"/>
		<path clip-path="url(#SVGID_4_)" fill="#263238" d="M132.234,177.05c0.102,0.583,0.657,0.974,1.241,0.873
			c0.583-0.102,0.974-0.658,0.872-1.241c-0.101-0.582-0.654-0.972-1.236-0.873c-0.584,0.099-0.977,0.653-0.878,1.236
			C132.234,177.047,132.234,177.049,132.234,177.05"/>
		<path clip-path="url(#SVGID_4_)" fill="#263238" d="M126.829,163.901l-0.688-7.537c-0.525-5.744,3.323-10.801,8.578-11.289
			c2.59-0.217,5.151,0.677,7.044,2.459c1.987,1.852,3.213,4.378,3.439,7.085l0.689,7.541l-1.498,0.137l-0.689-7.541
			c-0.193-2.337-1.252-4.519-2.969-6.115c-1.577-1.501-3.72-2.255-5.889-2.073c-4.432,0.407-7.687,4.735-7.219,9.655l0.689,7.537
			L126.829,163.901z"/>
		<path clip-path="url(#SVGID_4_)" fill="#263238" d="M168.212,143.256c-0.015-0.2-3.776-19.673-4.906-25.92l-0.08-0.457
			c-0.365-2.123-0.785-4.524-3.197-4.987l0.093-0.51c2.753,0.528,3.221,3.227,3.599,5.395l0.079,0.451
			c1.125,6.248,4.867,25.723,4.902,25.921L168.212,143.256z"/>
		<path clip-path="url(#SVGID_4_)" fill="#263238" d="M164.138,136.362c1.937-2.25,5.333-2.504,7.583-0.566
			c2.251,1.937,2.504,5.332,0.567,7.583c-1.938,2.251-5.333,2.504-7.583,0.566C162.454,142.008,162.201,138.612,164.138,136.362"/>
		<path clip-path="url(#SVGID_4_)" fill="#455A64" d="M170.799,139.676c0.107,1.432-0.967,2.68-2.4,2.787
			c-1.432,0.107-2.68-0.967-2.787-2.4c-0.107-1.432,0.967-2.68,2.4-2.787c0.001,0,0.003,0,0.005,0
			c1.429-0.107,2.675,0.965,2.782,2.395C170.799,139.673,170.799,139.674,170.799,139.676"/>
		<path clip-path="url(#SVGID_4_)" fill="#FFC100" d="M139.336,180.098l-5.494,17.059l54.809,10.876
			c5.074,1.013,10.335-0.302,14.335-3.584c5.321-4.383,6.183-11.417,4.985-18.227l-1.514-7.224L139.336,180.098z"/>
		<path clip-path="url(#SVGID_4_)" fill="#263238" d="M197.569,193.818c-0.055,0.004-0.254-1.117-0.939-2.819
			c-0.178-0.466-0.38-0.922-0.605-1.368c-0.227-0.485-0.529-0.965-0.836-1.505c-0.703-1.111-1.509-2.153-2.409-3.111
			c-0.913-0.945-1.912-1.802-2.985-2.561c-0.527-0.328-0.984-0.66-1.459-0.896c-0.432-0.253-0.877-0.483-1.333-0.69
			c-1.665-0.765-2.785-1.023-2.769-1.079c0.266,0.034,0.528,0.093,0.782,0.177c0.306,0.075,0.606,0.168,0.901,0.28
			c0.346,0.13,0.747,0.256,1.164,0.456c0.467,0.196,0.921,0.419,1.362,0.667c0.485,0.245,0.972,0.575,1.489,0.893
			c1.095,0.758,2.114,1.621,3.041,2.577c0.909,0.973,1.72,2.033,2.418,3.167c0.306,0.535,0.605,1.035,0.828,1.536
			c0.229,0.452,0.432,0.916,0.607,1.392c0.155,0.387,0.287,0.783,0.395,1.186c0.102,0.304,0.181,0.616,0.236,0.932
			C197.517,193.304,197.555,193.56,197.569,193.818"/>
		<g opacity="0.2" clip-path="url(#SVGID_4_)">
			<g>
				<defs>
					<rect id="SVGID_21_" x="113.474" y="174.595" width="18.458" height="15.517"/>
				</defs>
				<clipPath id="SVGID_22_">
					<use xlink:href="#SVGID_21_"  overflow="visible"/>
				</clipPath>
				<path clip-path="url(#SVGID_22_)" d="M131.932,187.737c-4.072,0.646-7.208,1.257-11.401,2.093
					c-2.62,0.522-5.377,0.542-6.43-1.907c-1.052-2.449-0.717-5.369,0.534-7.728c1.251-2.36,3.088-7.769,15.32-4.663L131.932,187.737
					z"/>
			</g>
		</g>
		<path clip-path="url(#SVGID_4_)" fill="#263238" d="M137.405,186.599l0.022-0.112l0.09-0.339l0.356-1.293l1.376-4.781l0.02-0.067
			l0.065-0.005l18.389,0.29l17.796,0.359l5.392,0.135l1.467,0.051l0.378,0.022c0.045-0.002,0.089,0.003,0.132,0.015l-0.13,0.01
			l-0.38,0.028l-1.467-0.001l-5.397-0.059l-17.795-0.278l-18.385-0.371l0.086-0.066l-1.453,4.762l-0.408,1.276l-0.111,0.33
			C137.428,186.567,137.41,186.603,137.405,186.599"/>
		<g opacity="0.2" clip-path="url(#SVGID_4_)">
			<g>
				<defs>
					<rect id="SVGID_23_" x="160.774" y="191.62" width="25.248" height="10.95"/>
				</defs>
				<clipPath id="SVGID_24_">
					<use xlink:href="#SVGID_23_"  overflow="visible"/>
				</clipPath>
				<path clip-path="url(#SVGID_24_)" d="M160.774,202.024c7.779,1.474,12.328-0.057,18.971-4.362
					c1.357-0.938,2.65-1.965,3.871-3.074c0.928-0.881,1.736-1.879,2.407-2.968c-8.666,4.079-15.884,7.216-24.887,10.472"/>
			</g>
		</g>
		<path clip-path="url(#SVGID_4_)" fill="#B78876" d="M137.417,186.417l1.38-5.003l-4.526-6.034
			c-0.792-1.057-1.985-1.74-3.297-1.889l-15.123-1.699c-0.297,1.184,0.338,2.403,1.479,2.839c2.037,0.968,10.98,2.355,10.98,2.355
			l-13.555,0.782c0,0-0.274,1.985,1.312,2.57c1.587,0.585,11.259,0.22,11.259,0.22l-12.219,2.661c0,0,0.076,1.965,2.903,1.793
			c2.778-0.241,5.542-0.623,8.281-1.146c0.235-0.051,0.469,0.094,0.527,0.327c0.052,0.226-0.077,0.454-0.297,0.525l-8.066,2.553
			c-0.582,0.177-0.911,0.793-0.733,1.376c0.116,0.378,0.425,0.666,0.812,0.753c0.151,0.025,0.306,0.024,0.457-0.004
			c1.388-0.244,9.665-1.928,9.665-1.928l0.508,0.942l8.253-1.983"/>
		<path clip-path="url(#SVGID_4_)" fill="#AA6550" d="M131.172,185.371c-0.134-0.261-0.308-0.499-0.515-0.705
			c-0.238-0.209-0.521-0.36-0.827-0.441c-0.377-0.085-0.767-0.099-1.149-0.04c-0.825,0.122-1.557,0.418-2.111,0.53
			c-0.297,0.096-0.612,0.119-0.919,0.069c0.284-0.104,0.575-0.192,0.869-0.262c0.691-0.261,1.402-0.465,2.126-0.61
			c0.417-0.065,0.843-0.042,1.251,0.067c0.333,0.101,0.636,0.282,0.883,0.527C131.041,184.716,131.187,185.037,131.172,185.371"/>
		<path clip-path="url(#SVGID_4_)" fill="#AA6550" d="M132.244,181.557c-0.025,0.002-0.05-0.132-0.176-0.338
			c-0.185-0.287-0.45-0.512-0.762-0.647c-0.788-0.384-2.051-0.143-3.384,0.047c-1.332,0.19-2.547,0.481-3.423,0.663
			c-0.467,0.125-0.945,0.21-1.428,0.252c0.446-0.189,0.91-0.333,1.385-0.43c1.127-0.31,2.268-0.563,3.421-0.758
			c0.637-0.106,1.279-0.18,1.923-0.219c0.542-0.054,1.088,0.037,1.583,0.263c0.335,0.162,0.607,0.432,0.771,0.767
			C132.225,181.277,132.257,181.417,132.244,181.557"/>
		<path clip-path="url(#SVGID_4_)" fill="#AA6550" d="M133.112,179.321c-0.042-0.396-0.178-0.775-0.399-1.105
			c-0.25-0.346-0.581-0.623-0.965-0.808c-0.484-0.209-1.005-0.32-1.532-0.328c-1.127-0.021-2.169,0.162-2.938,0.159
			c-0.416,0.031-0.833-0.038-1.216-0.2c-0.003-0.04,0.467,0.06,1.212,0.02c0.746-0.041,1.77-0.258,2.954-0.221
			c0.562,0.005,1.116,0.135,1.621,0.381c0.416,0.213,0.766,0.534,1.014,0.93c0.171,0.26,0.272,0.561,0.292,0.873
			C133.159,179.208,133.112,179.321,133.112,179.321"/>
		<path clip-path="url(#SVGID_4_)" fill="#263238" d="M181.521,175.689c-0.019-0.271-0.014-0.544,0.015-0.815
			c0.027-0.505,0.094-1.284,0.201-2.216c0.207-1.865,0.629-4.424,1.067-7.246c0.393-2.405,0.65-4.829,0.768-7.264
			c0.026-0.469,0.019-0.89,0.027-1.263c0.007-0.372,0.004-0.689-0.006-0.954c-0.023-0.271-0.02-0.544,0.009-0.815
			c0.053,0.268,0.083,0.54,0.091,0.812c0.019,0.26,0.044,0.585,0.071,0.955c0.028,0.369,0.029,0.797,0.009,1.265
			c-0.061,2.448-0.292,4.888-0.69,7.304c-0.442,2.827-0.89,5.373-1.144,7.231c-0.126,0.924-0.226,1.68-0.282,2.197
			C181.632,175.153,181.587,175.423,181.521,175.689"/>
		<path clip-path="url(#SVGID_4_)" fill="#263238" d="M189.152,208.085c-0.101,0.006-0.201-0.003-0.299-0.028l-0.843-0.123
			l-3.094-0.522c-2.612-0.453-6.215-1.124-10.194-1.912c-3.979-0.789-7.549-1.562-10.131-2.148l-3.067-0.705l-0.83-0.209
			c-0.081-0.021-0.159-0.051-0.233-0.089c0.1,0,0.199,0.012,0.295,0.039l0.84,0.158l3.063,0.63l10.145,2.072l10.143,1.985
			l3.06,0.601l0.837,0.174C188.949,208.023,189.052,208.048,189.152,208.085"/>
		<path clip-path="url(#SVGID_4_)" fill="#263238" d="M126.879,66.98c0.846-3.475,6.249-6.959,9.205-8.969
			c4.424-2.999,8.746-2.789,11.562-0.623c4.468-4.354,10.462-8.671,16.602-7.547c6.139,1.124,11.492,6.926,10.851,13.139
			c-0.375,3.662-2.637,7.087-2.214,10.719c0.286,2.491,1.78,4.651,3.023,6.84c1.244,2.188,2.231,4.768,1.465,7.157
			c-0.714,2.219-2.797,3.726-3.822,5.813c-0.837,1.711-0.911,3.676-1.392,5.516c-1.772,6.816-9.34,11.13-16.353,10.478
			c-7.014-0.651-13.176-5.432-16.933-11.403c-3.758-5.971-5.35-13.028-6.254-20.011"/>
		<path clip-path="url(#SVGID_4_)" fill="#B78876" d="M132.332,71.281l5.525,55.317c0.975,6.315,7.173,10.52,13.926,9.423
			c6.817-1.103,11.634-7.177,10.759-13.573c-0.918-6.711-1.759-13.799-1.759-13.799s8.441-2.641,8.655-14.175
			c0.106-5.907-1.563-15.461-3.127-23.013c-1.263-6.165-7.286-10.139-13.451-8.876c-0.158,0.032-0.315,0.068-0.47,0.107"/>
		<path clip-path="url(#SVGID_4_)" fill="#263238" d="M164.374,79.842c0.12,0.782-0.408,1.517-1.188,1.652
			c-0.75,0.17-1.497-0.301-1.666-1.051c-0.003-0.014-0.006-0.027-0.009-0.04c-0.116-0.783,0.409-1.517,1.188-1.657
			c0.754-0.167,1.501,0.308,1.668,1.062C164.37,79.82,164.372,79.831,164.374,79.842"/>
		<path clip-path="url(#SVGID_4_)" fill="#263238" d="M165.708,78.255c-0.155,0.212-1.365-0.446-2.921-0.224
			c-1.557,0.222-2.587,1.158-2.781,0.992c-0.096-0.074,0.038-0.435,0.483-0.871c0.609-0.562,1.378-0.921,2.199-1.028
			c0.809-0.115,1.632,0.03,2.353,0.412C165.572,77.843,165.781,78.154,165.708,78.255"/>
		<path clip-path="url(#SVGID_4_)" fill="#263238" d="M149.5,82.532c0.123,0.784-0.406,1.521-1.188,1.657
			c-0.754,0.167-1.5-0.308-1.668-1.062c-0.002-0.012-0.005-0.023-0.007-0.034c-0.117-0.783,0.409-1.517,1.188-1.657
			c0.754-0.167,1.5,0.308,1.668,1.062L149.5,82.532z"/>
		<path clip-path="url(#SVGID_4_)" fill="#263238" d="M150.447,80.687c-0.155,0.212-1.365-0.446-2.921-0.224
			c-1.557,0.222-2.587,1.158-2.781,0.992c-0.095-0.074,0.038-0.435,0.488-0.871c0.608-0.561,1.375-0.92,2.195-1.028
			c0.808-0.114,1.631,0.03,2.352,0.412C150.336,80.268,150.52,80.586,150.447,80.687"/>
		<path clip-path="url(#SVGID_4_)" fill="#263238" d="M157.703,91.437c-0.006-0.085,0.921-0.385,2.452-0.806
			c0.39-0.095,0.757-0.228,0.786-0.511c-0.024-0.415-0.175-0.812-0.431-1.139c-0.506-0.912-1.039-1.862-1.596-2.86
			c-2.235-4.085-3.915-7.462-3.751-7.55c0.165-0.088,2.11,3.149,4.349,7.213c0.537,1.006,1.056,1.966,1.548,2.9
			c0.32,0.443,0.471,0.986,0.426,1.531c-0.077,0.3-0.288,0.548-0.573,0.671c-0.21,0.092-0.432,0.154-0.66,0.185
			C158.704,91.381,157.709,91.526,157.703,91.437"/>
		<path clip-path="url(#SVGID_4_)" fill="#AA6550" d="M160.786,108.629c-5.3,0.825-10.726,0.162-15.671-1.915
			c0,0,4.863,7.311,16.003,4.674L160.786,108.629z"/>
		<path clip-path="url(#SVGID_4_)" fill="#263238" d="M149.997,74.529c-0.098,0.445-1.679,0.462-3.473,0.938
			s-3.203,1.179-3.501,0.834c-0.132-0.166,0.071-0.603,0.607-1.095c0.719-0.62,1.575-1.061,2.497-1.287
			c0.92-0.242,1.884-0.264,2.814-0.065C149.648,74.033,150.032,74.321,149.997,74.529"/>
		<path clip-path="url(#SVGID_4_)" fill="#263238" d="M164.502,73.828c-0.222,0.394-1.349,0.176-2.638,0.338
			s-2.349,0.572-2.651,0.238c-0.138-0.165-0.04-0.54,0.432-0.947c1.196-1.003,2.88-1.185,4.263-0.459
			C164.387,73.299,164.6,73.64,164.502,73.828"/>
		<path clip-path="url(#SVGID_4_)" fill="#AA6550" d="M155.504,94.561c1.224-0.092,1.861,0.223,2.948,0.785
			c0.325,0.141,0.602,0.376,0.794,0.674c0.196,0.44,0.176,0.947-0.053,1.371c-0.453,0.965-1.424,1.581-2.49,1.578
			c-1.07-0.033-2.001-0.74-2.318-1.762c-0.278-1.037,0.182-2.13,1.118-2.656"/>
		<path clip-path="url(#SVGID_4_)" fill="#263238" d="M159.852,96.864c0.009,0.12-0.367,0.329-1.055,0.34
			c-0.871-0.016-1.729-0.226-2.508-0.616c-0.784-0.363-1.492-0.871-2.087-1.498c-0.442-0.47-0.6-0.9-0.499-0.968
			c0.194-0.15,1.304,0.853,2.99,1.621c0.699,0.337,1.427,0.607,2.176,0.808C159.442,96.698,159.828,96.735,159.852,96.864"/>
		<path clip-path="url(#SVGID_4_)" fill="#AA6550" d="M151.34,86.856c0.229-0.017,0.429,0.155,0.446,0.384s-0.155,0.428-0.384,0.446
			c-0.229,0.017-0.429-0.155-0.446-0.384C150.939,87.073,151.111,86.874,151.34,86.856"/>
		<path clip-path="url(#SVGID_4_)" fill="#AA6550" d="M163.377,84.329c0.018,0.229-0.154,0.429-0.384,0.446
			c-0.229,0.017-0.428-0.155-0.445-0.384c-0.018-0.229,0.154-0.429,0.384-0.446C163.162,83.928,163.36,84.1,163.377,84.329"/>
		<path clip-path="url(#SVGID_4_)" fill="#AA6550" d="M165.752,85.237c0.042,0.229-0.108,0.448-0.337,0.491
			c-0.228,0.042-0.448-0.109-0.491-0.337c-0.005-0.03-0.007-0.061-0.006-0.092c0.008-0.232,0.203-0.414,0.435-0.406
			C165.55,84.9,165.716,85.043,165.752,85.237"/>
		<path clip-path="url(#SVGID_4_)" fill="#AA6550" d="M166.317,83.451c0.017,0.229-0.155,0.429-0.384,0.446
			c-0.229,0.017-0.428-0.155-0.446-0.384c-0.017-0.229,0.155-0.429,0.384-0.446C166.101,83.05,166.3,83.222,166.317,83.451"/>
		<path clip-path="url(#SVGID_4_)" fill="#AA6550" d="M150.024,89.216c0.02,0.231-0.151,0.436-0.383,0.456
			c-0.232,0.02-0.436-0.152-0.456-0.383c-0.02-0.232,0.152-0.436,0.383-0.456c0.002,0,0.003,0,0.005,0
			C149.803,88.816,150.004,88.987,150.024,89.216"/>
		<path clip-path="url(#SVGID_4_)" fill="#AA6550" d="M148.341,87.674c0.017,0.229-0.155,0.429-0.384,0.446
			c-0.229,0.017-0.428-0.155-0.446-0.384c-0.017-0.229,0.155-0.429,0.384-0.446C148.124,87.273,148.324,87.445,148.341,87.674"/>
		<path clip-path="url(#SVGID_4_)" fill="#FFFFFF" d="M154.762,82.139c-0.091-0.586-0.226-1.164-0.406-1.729
			c-0.528-1.532-1.556-2.841-2.921-3.716c-0.931-0.604-1.992-0.979-3.097-1.096c-1.265-0.135-2.544,0.07-3.704,0.594
			c-0.626,0.277-1.205,0.649-1.717,1.103c-0.544,0.461-1.012,1.005-1.387,1.611c-1.646,2.63-1.392,6.025,0.626,8.381
			c0.913,1.075,2.121,1.858,3.475,2.253c1.225,0.346,2.52,0.358,3.752,0.036c1.074-0.279,2.068-0.808,2.9-1.543
			c1.217-1.067,2.04-2.513,2.336-4.104c0.093-0.586,0.141-1.177,0.144-1.77c0.011,0.037,0.014,0.076,0.009,0.115l0.026,0.344
			c0.013,0.188,0.012,0.376-0.003,0.564c-0.007,0.255-0.033,0.509-0.079,0.759c-0.107,0.698-0.321,1.375-0.634,2.008
			c-1.545,3.163-5.129,4.772-8.519,3.822c-0.684-0.187-1.337-0.477-1.934-0.861c-0.63-0.386-1.194-0.871-1.67-1.438
			c-2.104-2.435-2.368-5.959-0.649-8.68c0.387-0.631,0.872-1.195,1.438-1.67c0.534-0.468,1.136-0.852,1.785-1.139
			c1.2-0.534,2.521-0.737,3.825-0.587c2.088,0.245,3.969,1.374,5.167,3.101c0.404,0.579,0.716,1.217,0.925,1.892
			c0.083,0.242,0.147,0.491,0.191,0.744c0.044,0.181,0.073,0.365,0.087,0.551l0.026,0.345
			C154.762,82.065,154.765,82.102,154.762,82.139"/>
		<path clip-path="url(#SVGID_4_)" fill="#FFFFFF" d="M157.731,79.721c-0.567-0.111-1.149-0.136-1.724-0.072
			c-0.561,0.145-1.097,0.371-1.593,0.672c0,0,0.091-0.198,0.357-0.409c0.349-0.264,0.755-0.443,1.187-0.521
			c0.433-0.082,0.88-0.057,1.302,0.074C157.58,79.567,157.744,79.69,157.731,79.721"/>
		<path clip-path="url(#SVGID_4_)" fill="#263238" d="M151.748,61.112c-0.325,9.105-6.434,17.737-14.895,21.124
			c3.095,3.819,1.909,11.616,2.457,18.007c0.514,5.942,0.636,7.641-2.99,10.963c-3.127,1.002-5.592-7.583-8.163-9.843
			c-2.571-2.26-5.039-5.096-5.117-8.497c-0.034-1.596,0.472-3.161,0.438-4.752c-0.031-1.766-0.726-3.463-1.164-5.154
			c-1.952-7.568,1.39-16.114,7.791-20.628c6.402-4.513,15.322-4.908,22.26-1.301"/>
		<path clip-path="url(#SVGID_4_)" fill="#263238" d="M135.397,99.666c-1.048-2.855-2.679-5.461-4.788-7.652l0.168,0.298
			c-2.546-4.798-8.501-6.625-13.3-4.078c-4.799,2.546-6.625,8.501-4.079,13.3c0.747,1.407,1.824,2.612,3.139,3.511
			c-1.143-0.166-2.21,0.889-2.361,2.031c-0.09,1.169,0.304,2.324,1.088,3.195c2.6,3.253,7.98,3.761,11.134,1.053
			c2.783,1.596,6.618,0.259,8.394-2.411C136.567,106.242,136.531,102.667,135.397,99.666"/>
		<path clip-path="url(#SVGID_4_)" fill="#455A64" d="M123.68,87.24c-0.112-0.09-0.215-0.19-0.309-0.298
			c-0.257-0.318-0.455-0.679-0.582-1.068c-0.382-1.011-0.359-2.656,0.331-4.446c0.374-0.98,0.923-1.885,1.62-2.669
			c0.757-0.927,1.61-1.77,2.545-2.517c1.034-0.833,2.179-1.517,3.401-2.033c1.262-0.542,2.61-0.989,3.983-1.444
			c1.373-0.454,2.717-0.901,3.962-1.446c1.202-0.517,2.361-1.128,3.467-1.828c1.871-1.182,3.586-2.593,5.108-4.2
			c1.026-1.089,1.96-2.259,2.794-3.501c0.299-0.439,0.514-0.792,0.66-1.054c0.069-0.123,0.15-0.241,0.24-0.35
			c-0.055,0.13-0.12,0.256-0.193,0.377c-0.137,0.246-0.336,0.608-0.625,1.052c-0.806,1.271-1.726,2.467-2.748,3.572
			c-1.521,1.639-3.244,3.078-5.127,4.283c-1.115,0.708-2.283,1.328-3.495,1.854c-1.261,0.551-2.609,1.004-3.981,1.463
			c-1.373,0.459-2.717,0.897-3.969,1.427c-1.208,0.505-2.342,1.173-3.37,1.986c-0.923,0.736-1.771,1.564-2.528,2.47
			c-0.678,0.777-1.21,1.67-1.573,2.635c-0.698,1.746-0.754,3.353-0.403,4.347C123.054,86.364,123.324,86.837,123.68,87.24"/>
		<path clip-path="url(#SVGID_4_)" fill="#455A64" d="M150.892,60.412c-0.064,0.105-0.136,0.207-0.214,0.302
			c-0.146,0.197-0.371,0.475-0.661,0.834c-0.837,1-1.734,1.948-2.688,2.839c-1.407,1.344-3.001,2.479-4.733,3.369
			c-1.044,0.476-2.129,0.859-3.242,1.141c-1.146,0.322-2.347,0.593-3.572,0.875c-2.314,0.454-4.584,1.109-6.784,1.959
			c-1.781,0.733-3.407,1.797-4.791,3.138c-0.929,0.905-1.672,1.985-2.184,3.178c-0.132,0.327-0.247,0.661-0.343,1
			c-0.026,0.121-0.066,0.239-0.119,0.351c0.014-0.122,0.037-0.243,0.068-0.362c0.075-0.35,0.175-0.693,0.3-1.028
			c0.484-1.224,1.215-2.337,2.149-3.265c1.381-1.378,3.018-2.473,4.819-3.225c2.206-0.875,4.487-1.55,6.814-2.017
			c1.231-0.278,2.426-0.553,3.564-0.864c1.1-0.276,2.174-0.649,3.208-1.114c1.716-0.868,3.301-1.973,4.71-3.282
			c0.963-0.871,1.879-1.793,2.743-2.763l0.7-0.795C150.712,60.584,150.798,60.493,150.892,60.412"/>
		<path clip-path="url(#SVGID_4_)" fill="#455A64" d="M162.842,49.579c0.004,0.055-0.968,0.163-2.461,0.687
			c-0.406,0.138-0.803,0.298-1.191,0.48c-0.424,0.178-0.848,0.426-1.306,0.671c-1.949,1.127-3.622,2.673-4.898,4.527
			c-0.279,0.438-0.561,0.841-0.771,1.254c-0.213,0.369-0.404,0.751-0.573,1.143c-0.632,1.434-0.825,2.403-0.867,2.386
			c0.016-0.228,0.057-0.453,0.121-0.672c0.052-0.265,0.123-0.525,0.213-0.78c0.101-0.351,0.223-0.696,0.365-1.032
			c0.157-0.404,0.341-0.797,0.55-1.177c0.205-0.417,0.481-0.835,0.758-1.283c0.649-0.939,1.394-1.808,2.224-2.593
			c0.846-0.765,1.771-1.437,2.76-2.006c0.433-0.244,0.88-0.463,1.338-0.657c0.723-0.317,1.476-0.565,2.246-0.741
			c0.26-0.071,0.525-0.123,0.792-0.155C162.373,49.587,162.608,49.569,162.842,49.579"/>
		<path clip-path="url(#SVGID_4_)" fill="#455A64" d="M174.116,92.125c0,0-0.002-0.035,0.067-0.105l0.215-0.293
			c0.192-0.261,0.48-0.639,0.798-1.16c0.403-0.616,0.692-1.3,0.854-2.019c0.089-0.446,0.09-0.905,0.004-1.352
			c-0.108-0.498-0.314-0.969-0.606-1.387c-0.609-0.894-1.555-1.642-2.44-2.591c-1.991-2.142-3.364-4.783-3.973-7.643
			c-0.282-1.607-0.443-3.233-0.484-4.864c-0.04-1.616-0.31-3.219-0.803-4.759c-1.015-2.708-3.164-4.835-5.882-5.822
			c-1.113-0.402-2.294-0.584-3.477-0.534c-2.203,0.075-4.319,0.874-6.022,2.274l-0.284,0.232c-0.061,0.05-0.094,0.077-0.1,0.073
			c0.435-0.466,0.93-0.871,1.473-1.206c1.473-0.938,3.165-1.475,4.909-1.557c1.207-0.061,2.415,0.113,3.556,0.513
			c2.795,0.992,5.009,3.168,6.052,5.945c0.501,1.562,0.777,3.188,0.818,4.828c0.04,1.619,0.2,3.233,0.477,4.829
			c0.593,2.819,1.937,5.426,3.89,7.544c0.864,0.94,1.816,1.703,2.438,2.637c0.301,0.44,0.509,0.938,0.612,1.461
			c0.085,0.469,0.077,0.95-0.025,1.414c-0.176,0.733-0.487,1.426-0.918,2.044c-0.257,0.395-0.538,0.775-0.839,1.138l-0.241,0.279
			C174.166,92.074,174.142,92.101,174.116,92.125"/>
		<path clip-path="url(#SVGID_4_)" fill="#FFFFFF" d="M171.976,79.079c-0.091-0.586-0.227-1.164-0.406-1.729
			c-0.527-1.532-1.556-2.841-2.921-3.716c-2.036-1.306-4.596-1.493-6.8-0.497c-1.281,0.591-2.359,1.546-3.102,2.744
			c-1.647,2.628-1.394,6.022,0.625,8.376c0.459,0.546,1.003,1.014,1.612,1.387c0.575,0.369,1.202,0.649,1.861,0.831
			c3.81,1.07,7.767-1.15,8.838-4.96c0.06-0.215,0.11-0.432,0.15-0.651c0.093-0.586,0.142-1.178,0.144-1.77
			c0.011,0.039,0.014,0.08,0.009,0.12c0.007,0.09,0.015,0.205,0.026,0.34c0.013,0.187,0.012,0.376-0.004,0.563
			c-0.007,0.256-0.033,0.512-0.078,0.764c-0.107,0.698-0.321,1.375-0.634,2.008c-0.413,0.84-0.983,1.594-1.678,2.221
			c-1.858,1.667-4.438,2.269-6.841,1.596c-0.686-0.185-1.338-0.475-1.934-0.86c-0.63-0.39-1.193-0.877-1.671-1.443
			c-2.105-2.433-2.368-5.957-0.648-8.676c0.387-0.63,0.872-1.194,1.438-1.67c0.534-0.468,1.136-0.852,1.785-1.139
			c1.199-0.535,2.52-0.74,3.825-0.592c2.094,0.249,3.978,1.391,5.169,3.131c0.403,0.578,0.715,1.214,0.924,1.886
			c0.083,0.243,0.147,0.492,0.192,0.745c0.043,0.182,0.073,0.368,0.086,0.556c0.011,0.135,0.019,0.25,0.026,0.345
			C171.976,79.018,171.978,79.049,171.976,79.079"/>
		<path clip-path="url(#SVGID_4_)" fill="#455A64" d="M136.264,111.396c-0.092-0.038-0.179-0.087-0.257-0.147
			c-0.164-0.103-0.397-0.262-0.702-0.45c-0.856-0.587-1.668-1.236-2.427-1.944c-1.168-1.041-2.015-2.393-2.442-3.898
			c-0.171-0.895-0.279-1.8-0.323-2.71c-0.054-0.953-0.396-1.866-0.98-2.62c-0.645-0.718-1.352-1.378-2.112-1.973
			c-0.708-0.59-1.309-1.299-1.775-2.094c-0.414-0.72-0.734-1.49-0.955-2.29c-0.203-0.693-0.325-1.408-0.365-2.129
			c-0.05-0.664,0.062-1.256,0.084-1.77c0.026-0.44,0.003-0.882-0.068-1.316c-0.139-0.714-0.308-1.088-0.283-1.1
			c0.052,0.084,0.096,0.173,0.13,0.267c0.103,0.263,0.187,0.534,0.251,0.81c0.088,0.443,0.121,0.894,0.101,1.344
			c-0.008,0.503-0.083,1.112-0.05,1.758c0.121,1.516,0.574,2.987,1.327,4.308c0.458,0.768,1.044,1.452,1.734,2.021
			c0.779,0.6,1.502,1.269,2.16,1.999c0.321,0.396,0.571,0.846,0.737,1.328c0.15,0.464,0.248,0.944,0.293,1.43
			c0.042,0.899,0.144,1.795,0.306,2.681c0.402,1.475,1.21,2.807,2.332,3.846c0.744,0.714,1.534,1.378,2.365,1.989l0.719,0.469
			C136.137,111.262,136.203,111.326,136.264,111.396"/>
		<path clip-path="url(#SVGID_4_)" fill="#455A64" d="M129.712,100.182c0.014,0.067,0.019,0.136,0.015,0.205
			c0.01,0.135,0.025,0.33,0.004,0.587c-0.031,0.725-0.146,1.443-0.343,2.142c-1.278,4.83-5.838,8.045-10.817,7.627
			c-0.722-0.054-1.435-0.192-2.126-0.409c-0.247-0.072-0.429-0.159-0.553-0.205c-0.124-0.046-0.187-0.081-0.183-0.092
			c0.939,0.269,1.901,0.445,2.874,0.524c1.055,0.057,2.112-0.041,3.139-0.29c2.545-0.586,4.759-2.146,6.168-4.345
			c0.578-0.883,1.024-1.846,1.324-2.858C129.471,102.124,129.638,101.158,129.712,100.182"/>
		<path clip-path="url(#SVGID_4_)" fill="#455A64" d="M127.612,97.977c-0.003,0.235-0.035,0.468-0.094,0.695
			c-0.131,0.626-0.323,1.238-0.572,1.827c-0.832,1.956-2.187,3.645-3.917,4.881c-1.735,1.223-3.754,1.983-5.865,2.207
			c-0.635,0.067-1.274,0.081-1.911,0.042c-0.235-0.004-0.468-0.033-0.696-0.089c0.865-0.002,1.728-0.048,2.588-0.138
			c2.066-0.269,4.035-1.037,5.738-2.238c1.691-1.212,3.035-2.848,3.896-4.743C127.111,99.625,127.388,98.809,127.612,97.977"/>
		<path clip-path="url(#SVGID_4_)" fill="#455A64" d="M112.623,94.091c0.129-0.117,0.274-0.216,0.431-0.293
			c0.171-0.11,0.35-0.207,0.536-0.292c0.241-0.123,0.49-0.232,0.744-0.327c0.658-0.252,1.339-0.438,2.034-0.554
			c0.852-0.138,1.715-0.186,2.577-0.142c0.862,0.056,1.715,0.203,2.546,0.438c0.675,0.203,1.329,0.474,1.95,0.809
			c0.238,0.126,0.468,0.267,0.689,0.421c0.175,0.106,0.34,0.227,0.495,0.36c0.141,0.101,0.27,0.22,0.383,0.353
			c-0.032,0.043-0.597-0.458-1.656-0.972c-0.619-0.305-1.265-0.552-1.929-0.74c-0.817-0.213-1.652-0.349-2.493-0.407
			c-0.837-0.042-1.675-0.005-2.504,0.112c-0.683,0.105-1.356,0.271-2.009,0.497C113.28,93.74,112.677,94.132,112.623,94.091"/>
		<path clip-path="url(#SVGID_4_)" fill="#FFC100" d="M124.058,92.307c-0.041,0.059-3.395-2.385-7.484-5.471
			c-4.09-3.087-7.374-5.6-7.333-5.658c0.041-0.059,3.395,2.389,7.489,5.47C120.825,89.729,124.094,92.254,124.058,92.307"/>
		<path clip-path="url(#SVGID_4_)" fill="#FFFFFF" d="M138.047,85.759c0.204-0.486,0.528-0.911,0.942-1.236
			c0.354-0.391,0.803-0.685,1.304-0.851c-0.347,0.377-0.724,0.725-1.128,1.039C138.819,85.089,138.446,85.439,138.047,85.759"/>
		<path clip-path="url(#SVGID_4_)" fill="#FAFAFA" d="M124.224,89.621c-0.027-0.029-0.051-0.061-0.072-0.095
			c-0.052-0.081-0.114-0.177-0.193-0.292c-0.224-0.39-0.388-0.811-0.485-1.25c-0.309-1.649,0.04-3.352,0.972-4.746
			c0.292-0.467,0.636-0.898,1.024-1.288c0.427-0.415,0.894-0.787,1.395-1.109c1.112-0.694,2.324-1.214,3.593-1.545
			c2.662-0.767,5.715-0.859,8.779-1.55c1.501-0.314,2.938-0.879,4.252-1.67c1.196-0.771,2.259-1.733,3.144-2.848
			c1.503-1.899,2.658-4.046,3.416-6.346c0.677-1.955,1.072-3.598,1.366-4.705l0.331-1.296l0.091-0.334
			c0.009-0.038,0.021-0.076,0.036-0.113c0,0,0.003,0.04,0.009,0.115l-0.065,0.342l-0.318,1.33c-0.345,1.602-0.775,3.184-1.289,4.739
			c-0.74,2.333-1.893,4.515-3.403,6.441c-0.903,1.135-1.988,2.113-3.211,2.893c-1.331,0.81-2.79,1.389-4.315,1.709
			c-3.103,0.705-6.142,0.781-8.775,1.531c-2.633,0.749-4.843,2.035-5.922,3.804c-0.916,1.346-1.282,2.991-1.024,4.599
			C123.692,88.53,123.915,89.099,124.224,89.621"/>
		<path clip-path="url(#SVGID_4_)" fill="#263238" d="M128.88,109.229c-0.053,0.699-0.205,1.387-0.45,2.043
			c-0.281,0.789-0.666,1.536-1.146,2.222c-0.636,0.916-1.44,1.702-2.37,2.318c-1.14,0.732-2.442,1.175-3.793,1.288
			c-1.557,0.152-3.124-0.182-4.484-0.956c-1.497-0.879-2.636-2.259-3.215-3.896c-0.309-0.862-0.429-1.78-0.352-2.692
			c0.089-0.94,0.379-1.849,0.851-2.667c0.766-1.375,2.021-2.413,3.517-2.906l0.018,0.25c-1.563-0.124-3.076-0.611-4.418-1.424
			c-1.243-0.745-2.268-1.803-2.973-3.069c-0.622-1.139-0.947-2.416-0.946-3.714c-0.001-1.121,0.293-2.222,0.852-3.194
			c0.472-0.79,1.106-1.471,1.861-1.999c0.56-0.39,1.182-0.684,1.839-0.871c0.412-0.113,0.835-0.177,1.262-0.189l0.328,0.01
			c0.036-0.008,0.073-0.011,0.11-0.008c-0.569,0.013-1.133,0.1-1.679,0.256c-0.64,0.198-1.242,0.499-1.783,0.892
			c-0.722,0.526-1.326,1.198-1.773,1.972c-0.533,0.949-0.808,2.021-0.798,3.11c0.011,1.261,0.334,2.499,0.943,3.603
			c0.692,1.225,1.691,2.249,2.9,2.969c1.314,0.786,2.79,1.258,4.315,1.381l0.652,0.052l-0.623,0.198
			c-1.435,0.475-2.638,1.473-3.37,2.794c-0.453,0.79-0.73,1.667-0.813,2.574c-0.072,0.876,0.042,1.758,0.334,2.588
			c0.555,1.589,1.654,2.931,3.103,3.788c1.315,0.755,2.831,1.086,4.342,0.947c1.32-0.103,2.594-0.528,3.712-1.237
			c0.916-0.593,1.711-1.353,2.345-2.241c0.483-0.671,0.878-1.401,1.174-2.173c0.183-0.489,0.332-0.991,0.446-1.5
			c0.033-0.164,0.059-0.296,0.076-0.403L128.88,109.229z"/>
		<path clip-path="url(#SVGID_4_)" fill="#263238" d="M124.322,87.835c-0.043-0.009-0.085-0.025-0.124-0.046l-0.363-0.159
			c-0.456-0.217-0.894-0.472-1.309-0.761c-1.54-1.077-2.764-2.548-3.544-4.258c-1.865-4.164-0.805-9.056,2.615-12.075
			c1.336-1.148,2.868-2.045,4.521-2.65c1.654-0.603,3.364-1.039,5.104-1.301c1.667-0.285,3.281-0.481,4.812-0.701
			c1.45-0.2,2.889-0.476,4.31-0.824c1.235-0.309,2.436-0.735,3.589-1.274c1.674-0.763,3.17-1.87,4.39-3.247
			c0.32-0.386,0.614-0.792,0.88-1.217l0.206-0.332c0.021-0.04,0.047-0.077,0.077-0.111c-0.284,0.621-0.65,1.2-1.087,1.725
			c-1.207,1.421-2.71,2.563-4.404,3.344c-1.159,0.553-2.37,0.992-3.615,1.31c-1.428,0.351-2.874,0.627-4.331,0.826
			c-3.055,0.475-6.476,0.755-9.824,2.025c-1.623,0.595-3.128,1.474-4.444,2.594c-3.352,2.948-4.417,7.722-2.635,11.815
			c0.756,1.684,1.939,3.141,3.431,4.226c0.406,0.298,0.832,0.565,1.276,0.799l0.345,0.181
			C124.244,87.755,124.286,87.793,124.322,87.835"/>
		<path clip-path="url(#SVGID_4_)" fill="#263238" d="M179.462,76.303c-0.105,0.147-0.268,0.243-0.448,0.265
			c-0.53,0.049-1.037-0.229-1.279-0.704c-0.182-0.341-0.186-0.75-0.011-1.095c0.202-0.401,0.531-0.724,0.937-0.919
			c1.007-0.452,2.177-0.349,3.091,0.272c0.538,0.33,0.97,0.809,1.243,1.379c0.29,0.62,0.391,1.312,0.289,1.989
			c-0.099,0.732-0.441,1.411-0.971,1.927c-0.562,0.541-1.27,0.905-2.038,1.046c-1.662,0.246-3.346-0.275-4.578-1.416
			c-0.667-0.568-1.207-1.269-1.586-2.058c-0.388-0.82-0.544-1.732-0.448-2.635c0.108-0.884,0.316-1.752,0.621-2.589
			c0.275-0.825,0.526-1.637,0.726-2.446c0.407-1.556,0.624-3.155,0.65-4.763c0.026-1.45-0.17-2.897-0.582-4.288
			c-0.366-1.218-0.935-2.365-1.686-3.392c-1.082-1.494-2.561-2.654-4.27-3.349c-0.466-0.171-0.945-0.303-1.432-0.395l-0.387-0.067
			c-0.044-0.006-0.087-0.017-0.128-0.036l0.13-0.01l0.39,0.042c0.499,0.075,0.99,0.198,1.465,0.367
			c1.744,0.675,3.259,1.835,4.365,3.343c0.775,1.02,1.371,2.165,1.761,3.386c0.428,1.412,0.637,2.881,0.616,4.356
			c-0.019,1.628-0.236,3.247-0.644,4.822c-0.2,0.82-0.455,1.642-0.731,2.462c-0.294,0.828-0.497,1.686-0.603,2.558
			c-0.086,0.85,0.061,1.708,0.427,2.48c0.36,0.76,0.878,1.434,1.52,1.977c1.17,1.094,2.772,1.6,4.359,1.378
			c0.728-0.129,1.401-0.47,1.937-0.979c0.499-0.477,0.823-1.108,0.921-1.792c0.1-0.638,0.011-1.292-0.256-1.881
			c-0.257-0.538-0.66-0.994-1.163-1.315c-0.86-0.597-1.968-0.705-2.926-0.284c-0.381,0.174-0.693,0.47-0.887,0.841
			c-0.171,0.312-0.177,0.689-0.016,1.006c0.22,0.447,0.685,0.721,1.183,0.695C179.183,76.462,179.334,76.4,179.462,76.303"/>
		<g opacity="0.2" clip-path="url(#SVGID_4_)">
			<g>
				<defs>
					<rect id="SVGID_25_" x="183.482" y="172.324" width="21.09" height="17.87"/>
				</defs>
				<clipPath id="SVGID_26_">
					<use xlink:href="#SVGID_25_"  overflow="visible"/>
				</clipPath>
				<path clip-path="url(#SVGID_26_)" d="M184.724,189.642c2.378-0.866,5.06,1.129,7.481,0.381c1.473-0.462,2.502-1.886,3.077-3.34
					c0.575-1.456,0.824-3.032,1.44-4.475c0.616-1.443,1.72-2.807,3.253-3.138c1.405-0.296,3.139,0.243,4.121-0.81
					c0.758-0.811,0.544-2.192-0.172-3.038c-0.717-0.846-1.785-1.293-2.817-1.709c-1.135-0.514-2.329-0.888-3.555-1.111
					c-1.238-0.218-2.513,0.027-3.582,0.69c-1.988,1.364-2.203,4.139-2.634,6.513c-0.246,1.666-0.824,3.266-1.698,4.705
					c-0.89,1.444-2.288,2.502-3.92,2.966c-0.636,0.071-1.249,0.278-1.799,0.607c-0.497,0.399-0.635,1.314-0.066,1.608"/>
			</g>
		</g>
		<path clip-path="url(#SVGID_4_)" fill="#B78876" d="M171.395,181.607l8.868-3.854l7.208-13.367
			c0.71-1.319,1.932-2.286,3.378-2.675l14.431-3.857c0.47,1.126,0.026,2.425-1.035,3.027c-1.871,1.26-10.509,3.966-10.509,3.966
			l13.521-1.241c0,0,0.561,1.923-0.921,2.737s-11.101,1.885-11.101,1.885l12.49,0.836c0,0,0.217,1.958-2.604,2.204
			c-2.782,0.183-5.572,0.223-8.358,0.122c-0.241-0.018-0.452,0.161-0.472,0.402c-0.021,0.232,0.142,0.44,0.372,0.475l8.355,1.325
			c0.603,0.088,1.02,0.647,0.933,1.25c-0.057,0.392-0.32,0.723-0.689,0.868c-0.147,0.049-0.303,0.071-0.458,0.064
			c-1.405-0.036-9.844-0.47-9.844-0.47s-2.176,10.554-4.023,11.532c-1.847,0.977-5.833,1.506-5.833,1.506l-8.244,3.998
			L171.395,181.607z"/>
		<path clip-path="url(#SVGID_4_)" fill="#AA6550" d="M206.314,163.636c-0.229,0.067-0.466,0.108-0.704,0.123l-1.932,0.24
			c-1.629,0.192-3.887,0.441-6.376,0.692l-3.516,0.354c-0.951,0.031-1.888,0.237-2.764,0.608c-0.574,0.277-1.045,0.73-1.346,1.292
			c-0.093,0.214-0.173,0.435-0.237,0.661c-0.014-0.061-0.019-0.123-0.013-0.185c0.025-0.177,0.073-0.349,0.142-0.514
			c0.282-0.609,0.76-1.106,1.357-1.413c0.889-0.407,1.847-0.639,2.823-0.683l3.49-0.371c2.494-0.252,4.754-0.471,6.387-0.618
			l1.939-0.145C205.812,163.643,206.063,163.629,206.314,163.636"/>
		<path clip-path="url(#SVGID_4_)" fill="#AA6550" d="M206.933,169.158c-0.218,0.025-0.439,0.026-0.658,0.004l-1.786-0.093
			c-1.514-0.083-3.595-0.234-5.894-0.393c-1.146-0.076-2.246-0.2-3.232-0.211c-0.867-0.04-1.725,0.182-2.465,0.636
			c-0.491,0.323-0.904,0.752-1.207,1.256c-0.215,0.358-0.294,0.58-0.315,0.572c0.004-0.059,0.017-0.115,0.038-0.169
			c0.05-0.157,0.112-0.31,0.187-0.456c0.283-0.542,0.693-1.008,1.195-1.356c0.761-0.502,1.658-0.755,2.57-0.725
			c1.004,0,2.104,0.12,3.255,0.189c2.299,0.17,4.382,0.341,5.885,0.475l1.781,0.173
			C206.504,169.072,206.722,169.104,206.933,169.158"/>
		<path clip-path="url(#SVGID_4_)" fill="#AA6550" d="M200.296,172.814c-0.489-0.032-0.974-0.1-1.453-0.203
			c-0.895-0.149-2.129-0.379-3.488-0.553c-0.325-0.052-0.652-0.076-0.98-0.073c-0.292,0.034-0.571,0.139-0.812,0.307
			c-0.429,0.281-0.779,0.667-1.017,1.121c-0.192,0.441-0.305,0.912-0.333,1.392c-0.051-0.126-0.072-0.262-0.06-0.398
			c-0.001-0.368,0.075-0.734,0.222-1.072c0.232-0.501,0.596-0.932,1.052-1.244c0.275-0.193,0.591-0.316,0.923-0.36
			c0.346-0.008,0.693,0.014,1.035,0.063c1.381,0.183,2.606,0.438,3.49,0.634C199.36,172.51,199.836,172.639,200.296,172.814"/>
		<path clip-path="url(#SVGID_4_)" fill="#FFC100" d="M104.318,193.519l27.06-5.399l47.317-11.365l7.343,15.076
			c-17.524,7.58-35.564,14.586-53.305,20.887c-1.458,0.406-2.957,0.646-4.469,0.716
			C122.219,213.911,107.125,212.596,104.318,193.519"/>
		<path clip-path="url(#SVGID_4_)" fill="#263238" d="M186.038,191.83c-0.053-0.086-0.102-0.175-0.146-0.266
			c-0.099-0.188-0.229-0.45-0.405-0.789c-0.349-0.707-0.858-1.724-1.502-3.023l-5.387-10.955l0.12,0.057l-22.982,5.626
			c-5.427,1.356-10.653,2.364-15.383,3.356c-2.371,0.494-4.616,0.978-6.702,1.506c-1.047,0.249-2.054,0.491-3.021,0.728
			c-0.927,0.22-1.842,0.493-2.738,0.818c-2.693,1.075-4.875,3.135-6.103,5.762c-0.336,0.707-0.603,1.446-0.794,2.205
			c-0.066,0.262-0.106,0.466-0.132,0.598c-0.012,0.07-0.03,0.139-0.054,0.205c0.026-0.274,0.071-0.546,0.135-0.814
			c0.171-0.77,0.423-1.52,0.752-2.237c0.519-1.139,1.218-2.187,2.07-3.105c1.141-1.211,2.53-2.162,4.073-2.786
			c0.903-0.332,1.823-0.614,2.756-0.844c0.986-0.255,1.972-0.515,3.018-0.769c2.093-0.508,4.337-1.007,6.702-1.505
			c4.734-1.002,9.955-2.016,15.371-3.375l22.997-5.573l0.084-0.006l0.037,0.078c2.211,4.578,4.031,8.352,5.303,10.991l1.454,3.047
			c0.162,0.345,0.282,0.612,0.376,0.801C186.032,191.75,186.038,191.83,186.038,191.83"/>
		<path clip-path="url(#SVGID_4_)" fill="#263238" d="M120.566,213.179c0.075,0.002,0.15,0.012,0.224,0.029l0.646,0.107
			c0.568,0.078,1.407,0.207,2.496,0.256c3.078,0.148,6.158-0.232,9.108-1.123c0.934-0.27,1.893-0.614,2.896-0.98l3.121-1.138
			l6.847-2.522c4.835-1.808,10.137-3.827,15.677-6.015c9.275-3.658,17.784-7.198,24.376-10.038l-0.05,0.14
			c-2.223-4.608-4.048-8.376-5.315-11.01c-0.625-1.306-1.109-2.33-1.448-3.038c-0.161-0.34-0.281-0.602-0.371-0.796
			c-0.09-0.195-0.116-0.273-0.116-0.273s0.052,0.087,0.145,0.26c0.094,0.174,0.225,0.451,0.395,0.785l1.497,3.009l5.398,10.973
			l0.047,0.098l-0.097,0.042c-6.6,2.875-15.098,6.43-24.372,10.092c-5.541,2.188-10.848,4.203-15.688,6.002l-6.887,2.525
			l-3.128,1.118c-0.978,0.359-1.957,0.704-2.907,0.971c-2.972,0.88-6.074,1.235-9.168,1.051
			C122.769,213.637,121.655,213.461,120.566,213.179"/>
		<path clip-path="url(#SVGID_4_)" fill="#263238" d="M129.349,188.271c-0.22,0.076-0.446,0.128-0.677,0.156l-1.86,0.325
			l-6.131,1.066l-6.128,1.121l-1.86,0.335c-0.224,0.056-0.455,0.087-0.686,0.092c0.217-0.083,0.441-0.146,0.669-0.191
			c0.435-0.103,1.062-0.245,1.843-0.414c1.558-0.338,3.716-0.781,6.112-1.196c2.397-0.415,4.576-0.769,6.153-0.992
			c0.79-0.115,1.432-0.198,1.876-0.251C128.887,188.287,129.118,188.27,129.349,188.271"/>
	</g>
</g>
</svg>
